<svg version="1.1" id="Layer_1" xmlns="http://www.w3.org/2000/svg" x="0" y="0" viewBox="0 0 29 27" xml:space="preserve"><style>.st0{fill:#fff}</style><path class="st0" d="M8.5 5.4L4.9 15h1.7l.8-2.2h3.7l.8 2.2h1.7L10 5.4H8.5zm-.7 6l1.4-4 1.4 4H7.8zM20 6.2h-1.6v1.7h-4.1v1.6h6.6c-.5.9-1.2 1.8-1.9 2.6-.5-.5-1-1.1-1.4-1.8l-1.4.8c.5.7 1.1 1.4 1.7 2.1-.8.8-1.7 1.5-2.6 2.2l.9 1.4c1-.7 2-1.5 2.9-2.4 1.1.9 2.3 1.7 3.5 2.4l.8-1.4c-1.1-.6-2.2-1.3-3.2-2.2 1-1.2 1.9-2.5 2.6-3.8h1.4V7.8H20V6.2z"/><path class="st0" d="M26.1 1H2.9C1.9 1 1 1.8 1 2.9v23.6l9.3-5.5h15.8c1.1 0 1.9-.8 1.9-1.9V2.9c0-1.1-.9-1.9-1.9-1.9zm.5 18.1c0 .3-.2.5-.5.5H9.9l-7.5 4.5V2.9c0-.3.2-.5.5-.5h23.2c.3 0 .5.2.5.5v16.2z"/></svg>