<svg id="Layer_1" data-name="Layer 1" xmlns="http://www.w3.org/2000/svg" viewBox="0 0 29 27"><defs><style>.cls-1{fill:#333}</style></defs><path class="cls-1" d="M8.49 5.4L4.86 15H6.6l.77-2.23h3.72l.79 2.23h1.74L10 5.4zm-.65 6l1.39-4 1.39 4zM20 6.17h-1.64v1.67h-4.14v1.62h6.58a16.14 16.14 0 0 1-1.92 2.64 10.68 10.68 0 0 1-1.35-1.77l-1.44.84a21 21 0 0 0 1.66 2.12 22.08 22.08 0 0 1-2.61 2.22l.94 1.41A22.13 22.13 0 0 0 19 14.49a30.38 30.38 0 0 0 3.52 2.45l.78-1.45a17.37 17.37 0 0 1-3.19-2.2 21.77 21.77 0 0 0 2.6-3.83h1.44V7.84H20z"/><path class="cls-1" d="M26.08 1H2.92A1.91 1.91 0 0 0 1 2.89v23.64L10.31 21h15.77A1.91 1.91 0 0 0 28 19.11V2.89A1.91 1.91 0 0 0 26.08 1zm.52 18.11a.5.5 0 0 1-.52.49H9.93L2.4 24.07V2.89a.5.5 0 0 1 .52-.49h23.16a.5.5 0 0 1 .52.49z"/></svg>