<?xml version="1.0" encoding="utf-8"?>
<!-- Generator: Adobe Illustrator 23.0.1, SVG Export Plug-In . SVG Version: 6.00 Build 0)  -->
<svg version="1.1" id="Layer_1" xmlns="http://www.w3.org/2000/svg" xmlns:xlink="http://www.w3.org/1999/xlink" x="0px" y="0px"
	 viewBox="0 0 29 27" style="enable-background:new 0 0 29 27;" xml:space="preserve">
<style type="text/css">
	.st0{fill:#FFFFFF;}
</style>
<title>IMaI_Ikon_Sprak_</title>
<path class="st0" d="M8.5,5.4L4.9,15h1.7l0.8-2.2h3.7l0.8,2.2h1.7L10,5.4H8.5z M7.8,11.4l1.4-4l1.4,4H7.8z"/>
<path class="st0" d="M20,6.2h-1.6v1.7h-4.1v1.6h6.6c-0.5,0.9-1.2,1.8-1.9,2.6c-0.5-0.5-1-1.1-1.4-1.8l-1.4,0.8
	c0.5,0.7,1.1,1.4,1.7,2.1c-0.8,0.8-1.7,1.5-2.6,2.2l0.9,1.4c1-0.7,2-1.5,2.9-2.4c1.1,0.9,2.3,1.7,3.5,2.4l0.8-1.4
	c-1.1-0.6-2.2-1.3-3.2-2.2c1-1.2,1.9-2.5,2.6-3.8h1.4V7.8H20V6.2z"/>
<path class="st0" d="M26.1,1H2.9C1.9,1,1,1.8,1,2.9v23.6l9.3-5.5h15.8c1.1,0,1.9-0.8,1.9-1.9V2.9C28,1.8,27.1,1,26.1,1z M26.6,19.1
	c0,0.3-0.2,0.5-0.5,0.5c0,0,0,0,0,0H9.9l-7.5,4.5V2.9c0-0.3,0.2-0.5,0.5-0.5c0,0,0,0,0,0h23.2c0.3,0,0.5,0.2,0.5,0.5c0,0,0,0,0,0
	V19.1z"/>
</svg>
