<?xml version="1.0" encoding="utf-8"?>
<!-- Generator: Adobe Illustrator 23.0.1, SVG Export Plug-In . SVG Version: 6.00 Build 0)  -->
<svg version="1.1" id="Layer_1" xmlns="http://www.w3.org/2000/svg" xmlns:xlink="http://www.w3.org/1999/xlink" x="0px" y="0px"
	 viewBox="0 0 29 27" style="enable-background:new 0 0 29 27;" xml:space="preserve">
<style type="text/css">
	.st0{fill:#FFFFFF;}
</style>
<title>IMaI_Ikon_meny_</title>
<rect x="6" y="7.5" class="st0" width="17" height="2"/>
<rect x="6" y="15.5" class="st0" width="17" height="2"/>
<rect x="6" y="11.5" class="st0" width="17" height="2"/>
<path class="st0" d="M26.1,1H2.9C1.9,1,1,1.8,1,2.9c0,0,0,0,0,0v19.2c0.1,1,0.9,1.8,1.9,1.9h23.2c1.1,0,1.9-0.8,1.9-1.9c0,0,0,0,0,0
	V2.9C28,1.8,27.1,1,26.1,1C26.1,1,26.1,1,26.1,1z M26.6,22.1c0,0.3-0.2,0.5-0.5,0.5c0,0,0,0,0,0H2.9c-0.2,0-0.5-0.4-0.5-0.5V2.9
	c0-0.3,0.2-0.5,0.5-0.5c0,0,0,0,0,0h23.2c0.3,0,0.5,0.2,0.5,0.5c0,0,0,0,0,0V22.1z"/>
</svg>
