<?xml version="1.0" encoding="utf-8"?>
<!-- Generator: Adobe Illustrator 23.0.1, SVG Export Plug-In . SVG Version: 6.00 Build 0)  -->
<svg version="1.1" id="Layer_1" xmlns="http://www.w3.org/2000/svg" xmlns:xlink="http://www.w3.org/1999/xlink" x="0px" y="0px"
	 viewBox="0 0 90 62" style="enable-background:new 0 0 90 62;" xml:space="preserve">
<style type="text/css">
	.st0{fill:#FFFFFF;}
</style>
<title>IMaI_Logo_</title>
<path class="st0" d="M11.6,17c-0.1,0-0.2,0-0.2,0c-0.1,0-0.2-0.1-0.2-0.2l-0.8-1.1c-0.1-0.1-0.2-0.2-0.3-0.3L10,15.4l-0.3-0.2l0,0
	C9.6,15.1,9.5,15,9.4,15c-0.1,0-0.2,0.1-0.3,0.2C9,15.3,8.9,15.4,9,15.5c0,0.1,0,0.2-0.1,0.3c-0.1,0.1-0.1,0.2-0.1,0.3v0.3
	c0,0.1,0,0.2,0.1,0.3c0,0.1,0.1,0.2,0.1,0.3L9.1,18c0,0.1,0,0.3,0,0.4v0.1c0,0.1,0,0.3,0,0.4c0,0.1,0.1,0.2,0.2,0.3l0.2,0.1
	c0.1,0.1,0.2,0.1,0.4,0.1h0.1c0.1,0,0.2-0.1,0.3-0.2l0,0c0.1-0.1,0.1-0.2,0.1-0.3c0-0.1,0-0.2-0.1-0.3c0-0.1-0.1-0.2-0.1-0.3
	l-0.1-0.7c0-0.1,0-0.2,0.1-0.4c0.1-0.1,0.2-0.1,0.3,0c0,0,0,0,0,0l1,1.2c0.1,0.1,0.2,0.2,0.3,0.3l0.3,0.2c0.1,0.1,0.2,0.1,0.4,0.1
	c0.1,0,0.2,0,0.3,0c0,0,0.1-0.1,0.2-0.2c0.1-0.1,0.1-0.2,0.1-0.4l-0.4-3.4c0-0.1-0.1-0.2-0.2-0.3l-0.1-0.1c-0.1-0.1-0.2-0.1-0.4-0.1
	c-0.1,0-0.2,0.1-0.3,0.2l0,0c-0.1,0.1-0.1,0.2-0.1,0.4l0.2,1.5C11.7,16.9,11.7,17,11.6,17z"/>
<path class="st0" d="M18.5,14.5l-0.9,3.3c0,0.1,0,0.2,0,0.3c0.1,0.1,0.1,0.2,0.2,0.3l0,0c0.1,0.1,0.2,0.1,0.4,0.1h0.1
	c0.1,0,0.3-0.1,0.4-0.1l0,0c0.1-0.1,0.2-0.2,0.3-0.3l0.2-0.3c0.1-0.1,0.2-0.2,0.3-0.2l0.5-0.1c0.1,0,0.3,0,0.4,0.1l0,0l0.3,0.2
	c0.1,0.1,0.2,0.1,0.3,0.1c0.1,0,0.2-0.1,0.3-0.2l0.1-0.3c0-0.1,0-0.3,0-0.4l0,0c0-0.1-0.1-0.3-0.2-0.4v0c-0.1-0.1-0.1-0.2-0.2-0.4
	l-0.4-0.8c0-0.1-0.1-0.3-0.2-0.4l-0.1-0.2c-0.1-0.1-0.1-0.2-0.2-0.3l-0.4-0.5c-0.1-0.1-0.2-0.1-0.3-0.2c-0.1,0-0.1-0.1-0.1-0.1
	c0-0.1,0-0.2,0.1-0.2c0-0.1,0.1-0.1,0.2,0l0.4,0.1c0.1,0.1,0.2,0.1,0.3,0c0.1-0.1,0.1-0.2,0.1-0.3c0-0.1-0.1-0.2-0.2-0.3L20,13.1
	c-0.1-0.1-0.2-0.1-0.3-0.2c-0.1-0.1-0.2-0.1-0.3-0.1c-0.1,0-0.2,0.1-0.3,0.2c-0.1,0.1-0.2,0.2-0.3,0.2h0c-0.1,0-0.2,0-0.4,0
	c-0.1,0-0.2,0-0.2,0.1c0,0.1,0,0.2,0,0.3l0.2,0.2c0.1,0.1,0.1,0.2,0.1,0.3c0,0.1,0,0.1,0,0.2C18.6,14.3,18.6,14.4,18.5,14.5z
	 M19.5,16L19.5,16c0.1,0,0.2,0,0.3,0.1c0,0.1,0,0.2,0,0.3c-0.1,0.1-0.1,0.1-0.2,0.1c-0.1,0-0.2-0.1-0.2-0.2v-0.1
	C19.3,16.2,19.4,16.1,19.5,16C19.5,16,19.5,16,19.5,16L19.5,16z"/>
<path class="st0" d="M27.6,14.3c0.1-0.1,0.2-0.2,0.3-0.2h0.2c0.1,0,0.3-0.1,0.4-0.1l0.1-0.1c0.1-0.1,0.1-0.2,0.1-0.3v-0.1
	c0-0.1-0.1-0.2-0.1-0.3c-0.1-0.1-0.2-0.1-0.3-0.1H28c-0.1,0-0.2,0-0.3,0c-0.1,0-0.2,0-0.3,0.1l-1.8,0.2c-0.1,0-0.3,0.1-0.4,0.1
	l-0.1,0.1c-0.1,0.1-0.2,0.2-0.1,0.3l0,0c0,0.1,0.1,0.2,0.2,0.3l0.1,0.1c0.1,0.1,0.2,0.1,0.4,0.1h0.2c0.1,0,0.3,0,0.4,0.1l0,0
	c0.1,0.1,0.2,0.2,0.2,0.3l0.1,1.4c0,0.1,0,0.2,0,0.4c0,0.1,0,0.2,0,0.4v0.2c0,0.1,0.1,0.2,0.2,0.3l0.2,0.1c0.1,0.1,0.2,0.1,0.4,0.1
	c0.1,0,0.2-0.1,0.3-0.2c0.1-0.1,0.1-0.2,0.1-0.4l-0.2-2.2c0-0.1,0-0.3,0.1-0.4L27.6,14.3z"/>
<path class="st0" d="M35.9,12.5l-0.1-0.1c-0.1-0.1-0.2-0.1-0.3-0.1c-0.1,0-0.2,0.1-0.3,0.1l0,0c-0.1,0.1-0.2,0.2-0.2,0.3l-0.2,0.9
	c0,0.1,0,0.3,0,0.4v0.2c0,0.1,0,0.3-0.1,0.4c0,0.1-0.1,0.2-0.2,0.2s-0.1-0.1-0.2-0.2c-0.1-0.1-0.1-0.2-0.2-0.3
	c-0.1-0.1-0.1-0.2-0.2-0.3L34,13.9c0-0.1-0.1-0.2-0.1-0.3c0-0.1,0-0.2-0.1-0.3l0,0c-0.1-0.1-0.1-0.2-0.2-0.3
	c-0.1-0.1-0.2-0.1-0.3-0.1h-0.1c-0.1,0-0.2,0-0.3,0c-0.1,0.1-0.1,0.2-0.1,0.3c0,0.1,0,0.2,0.1,0.4l0.1,0.4c0,0.1,0.1,0.3,0.2,0.4
	l0.1,0.2c0.1,0.1,0.1,0.2,0.1,0.4v0.2c0,0.1,0.1,0.3,0.2,0.4l0.1,0.2l0.3,0.3l0.6,0.7c0.1,0.1,0.2,0.1,0.3,0.1l0.1-0.1
	c0.1,0,0.2-0.1,0.2-0.2c0-0.1,0.1-0.2,0.2-0.3c0.1-0.1,0.2-0.2,0.2-0.3l0.1-0.1c0-0.1,0.1-0.3,0.1-0.4l0.1-0.7c0-0.1,0-0.3,0.1-0.4
	l0.2-0.9c0-0.1,0-0.3,0-0.4v-0.1C36.1,12.6,36,12.5,35.9,12.5z"/>
<path class="st0" d="M42,12.7l1.5-0.2c0.1,0,0.2-0.1,0.2-0.2v-0.1c0-0.1-0.1-0.2-0.2-0.3l-0.2-0.1c-0.1-0.1-0.2-0.1-0.4-0.1h-0.2
	c-0.1,0-0.2,0-0.4,0.1l-0.4,0.1H42c-0.1,0-0.3,0.1-0.4,0.1l-0.5,0.1c-0.1,0-0.2,0.1-0.3,0.2v0.2c0,0.1-0.1,0.3-0.2,0.4l0,0
	c-0.1,0.1-0.1,0.2-0.1,0.3c0,0.1,0,0.2,0.1,0.2c0.1,0.1,0.1,0.2,0.1,0.3l0,1.5c0,0.1,0,0.2,0,0.4c0,0.1,0,0.2,0,0.3
	c0,0.1,0.1,0.3,0.2,0.3l0.2,0.2c0.1,0.1,0.2,0.1,0.4,0.1l1.3-0.1c0.1,0,0.3-0.1,0.4-0.1l0.3-0.2c0.1-0.1,0.2-0.2,0.3-0.3
	c0-0.1,0.1-0.2,0.1-0.3c0-0.1,0-0.1-0.1-0.1c-0.1,0-0.2,0-0.3,0h-0.3c-0.1,0-0.2,0-0.3,0.1c-0.1,0-0.2,0-0.3,0.1c-0.1,0-0.2,0-0.3,0
	c-0.1,0-0.2-0.1-0.3-0.2l0,0c-0.1-0.1-0.1-0.1-0.2-0.2c0-0.1,0-0.2,0.1-0.3l0,0c0.1-0.1,0.2-0.2,0.3-0.2l1-0.1
	c0.1,0,0.2-0.1,0.3-0.2c0.1-0.1,0.1-0.2,0.1-0.3c0-0.1-0.1-0.2-0.2-0.3l0,0c-0.1-0.1-0.2-0.1-0.4-0.1l-1,0.1c-0.1,0-0.2,0-0.3-0.1
	c-0.1-0.1-0.1-0.3-0.1-0.4c0,0,0,0,0.1-0.1C41.8,12.8,41.9,12.7,42,12.7z"/>
<path class="st0" d="M51.2,11.1c-0.2-0.1-0.5-0.2-0.5-0.2c-0.1,0-0.3,0-0.4,0h-0.7c-0.1,0-0.3,0.1-0.4,0.1c-0.1,0.1-0.2,0.1-0.4,0.1
	c-0.1,0-0.2,0.1-0.3,0.2l-0.1,0.2c0,0.1-0.1,0.2-0.1,0.3c0,0.1,0,0.2,0,0.3c0,0.1,0,0.2,0,0.3l0.1,1c0,0.1,0.1,0.2,0.2,0.3l0.1,0.1
	c0.1,0.1,0.1,0.2,0.2,0.3c0,0.1,0,0.2,0,0.3c0,0.1,0,0.2,0,0.3c0,0.1,0.1,0.2,0.1,0.3c0.1,0.1,0.2,0.1,0.3,0.1
	c0.1,0,0.1-0.1,0.2-0.2c0-0.1,0-0.2,0-0.3c0-0.1,0-0.2-0.1-0.3c-0.1-0.1-0.1-0.2-0.1-0.3c0-0.1,0-0.2,0.1-0.3
	c0.1-0.1,0.2-0.1,0.3-0.2c0.1-0.1,0.2-0.1,0.4-0.1h0.2c0.1,0,0.2,0.1,0.3,0.2l0.2,0.3c0.1,0.1,0.2,0.2,0.3,0.2
	c0.1,0,0.1,0.1,0.2,0.1c0,0,0,0.1,0,0.1c-0.1,0.1-0.1,0.2,0,0.2c0,0.1,0.1,0.2,0.2,0.3c0.1,0.1,0.2,0.1,0.3,0.1l0,0
	c0.1,0,0.2-0.1,0.2-0.2v-0.2c0-0.1,0-0.2-0.1-0.3c0-0.1-0.1-0.1-0.1-0.1c0,0,0-0.1,0-0.1c0-0.1,0-0.2,0-0.3l-0.2-0.4
	c0-0.1-0.1-0.3-0.1-0.3l0-0.1c0.3-0.2,0.5-0.6,0.5-1C51.8,11.6,51.6,11.3,51.2,11.1z M50.4,12.7c-0.1,0.1-0.2,0.1-0.4,0.1h-0.1
	c-0.1,0-0.3,0-0.4-0.1h-0.1c-0.1-0.1-0.2-0.2-0.2-0.3l0,0c0-0.1,0-0.3,0.1-0.4c0.1-0.1,0.2-0.2,0.3-0.2l0.6-0.1
	c0.4,0,0.5,0.1,0.5,0.4S50.4,12.7,50.4,12.7z"/>
<path class="st0" d="M57.6,10.8c0-0.1,0-0.2-0.1-0.3c0-0.1-0.1-0.1-0.2-0.1c0,0-0.2,0-0.3,0.1l-0.3,0.3c-0.1,0.1-0.1,0.2-0.2,0.3
	v0.1c0,0.1,0,0.3,0,0.4l0.1,1.2c0,0.1,0,0.2,0.1,0.3c0,0.1,0.1,0.2,0.1,0.3c0,0.1,0,0.1,0,0.2c0,0.1,0,0.1,0,0.2
	c0,0.1,0.1,0.2,0.2,0.3l0.2,0.2c0.1,0.1,0.2,0.1,0.3,0.1c0.1,0,0.2-0.1,0.2-0.2v-0.1c0.1-0.1,0.1-0.2,0.1-0.4l-0.1-0.8
	c0-0.1,0-0.2,0.1-0.3c0.1-0.1,0.2-0.1,0.3-0.1l0,0c0.1,0,0.3,0.1,0.3,0.2l0.8,1c0.1,0.1,0.2,0.2,0.3,0.2l0.1,0.1c0.1,0,0.2,0,0.3,0
	c0.1,0,0.2-0.1,0.2-0.2l0-0.1c0-0.1,0-0.2,0-0.3L59,12c-0.1-0.1-0.1-0.2,0-0.3l0.8-1c0.1-0.1,0.1-0.2,0-0.3l0,0
	c-0.1-0.1-0.2-0.2-0.3-0.1h-0.3c-0.1,0-0.3,0.1-0.3,0.2l-0.7,0.7c-0.1,0.1-0.1,0.2-0.2,0.2c-0.1,0-0.2,0-0.2,0
	c-0.1,0-0.1-0.1-0.1-0.2C57.7,11,57.7,10.9,57.6,10.8z"/>
<path class="st0" d="M66.1,10.2c0.1-0.1,0.2-0.1,0.4-0.1l0.9-0.1h0.3c0.1,0,0.1,0,0.1-0.1c0,0,0-0.1,0.1-0.2c0-0.1-0.1-0.1-0.1-0.1
	c-0.1,0-0.2-0.1-0.3-0.1l0,0c-0.1,0-0.3,0-0.4-0.1l0,0c-0.1-0.1-0.2-0.1-0.3-0.1c-0.1,0-0.2,0.1-0.3,0.1l0,0c-0.1,0-0.2,0.1-0.3,0.1
	c-0.1,0-0.2,0-0.3,0c-0.1,0-0.2,0-0.3,0h-0.2c-0.1,0-0.2,0.1-0.2,0.2v0.1c0,0.1,0,0.3,0,0.4v0.3c0,0.1,0,0.2,0,0.4
	c0,0.1,0,0.3,0,0.4l0.1,0.7c0,0.1,0,0.2,0.1,0.3c0,0.1,0,0.2,0,0.3c0,0.1,0,0.1,0,0.2c0,0.1,0,0.2,0,0.3v0c0,0.1,0.1,0.3,0.2,0.4
	l0.1,0.1c0.1,0.1,0.2,0.1,0.3,0.1l1.3-0.1h0.3c0.1,0,0.2,0,0.2,0c0.1,0,0.2,0,0.3,0c0.1,0,0.2-0.1,0.3-0.2l0.1-0.1
	c0-0.1,0.1-0.1,0.1-0.2c0-0.1-0.1-0.2-0.2-0.2c-0.1-0.1-0.2-0.1-0.3-0.1l-1,0.1h-0.3c-0.1,0-0.2,0-0.3-0.1l0,0
	c-0.1-0.1-0.1-0.2-0.2-0.3c0-0.1,0-0.2,0.1-0.4l0,0c0.1-0.1,0.2-0.2,0.3-0.2l1-0.1c0.1,0,0.2-0.1,0.3-0.2c0-0.1,0.1-0.2,0.1-0.3
	c0,0-0.1-0.1-0.2-0.2C67.6,11,67.5,11,67.4,11l-1,0.1c-0.1,0-0.2,0-0.3-0.1H66c-0.1-0.1-0.1-0.2-0.2-0.3c0-0.1,0.1-0.2,0.2-0.3
	L66.1,10.2z"/>
<path class="st0" d="M73.6,9.6c-0.1,0.1-0.1,0.2-0.1,0.3l0.1,1.1c0,0.1,0.1,0.2,0.1,0.3c0.1,0.1,0.2,0.2,0.2,0.3v0.1
	c0,0.1,0,0.2-0.1,0.3c0,0.1-0.1,0.2-0.1,0.3c0,0.1,0.1,0.2,0.1,0.3l0,0c0.1,0.1,0.2,0.1,0.3,0.1c0.1,0,0.2-0.1,0.3-0.2l0,0
	c0.1-0.1,0.1-0.2,0.1-0.4l0,0c0-0.1-0.1-0.2-0.2-0.3h-0.2c-0.1,0-0.1-0.1-0.1-0.2c0,0,0.1-0.1,0.2-0.2c0.1-0.1,0.2-0.2,0.2-0.3
	c0-0.1,0-0.2,0-0.4l-0.1-0.9c0-0.1-0.1-0.2-0.2-0.3l-0.1-0.1c-0.1-0.1-0.2-0.1-0.3-0.1C73.7,9.5,73.6,9.5,73.6,9.6z"/>
<path class="st0" d="M10.3,32.4v0.1c0,0.1,0,0.3,0.1,0.4c0,0.1,0.1,0.3,0.1,0.4v0.2c0,0.1,0.1,0.3,0.1,0.4l0.3,0.4
	c0.1,0.1,0.2,0.1,0.3,0.1l1.4-0.1c0.1,0,0.3-0.1,0.4-0.1l0.5-0.2c0.1-0.1,0.2-0.1,0.3-0.2l0.1-0.1c0.1-0.1,0.1-0.2,0.1-0.4
	l-1.3-12.6c0-0.1-0.1-0.2-0.2-0.3l-0.8-0.2c-0.1,0-0.3,0-0.4,0l-1.6,0.2c-0.1,0-0.2,0.1-0.3,0.2l-0.2,0.2c-0.1,0.1-0.1,0.2-0.1,0.4
	l0.5,5c0,0.1,0,0.3,0.1,0.4l0.2,0.8c0,0.1,0.1,0.3,0.1,0.4l0.4,3.3c0,0.1,0,0.3,0,0.4V32C10.3,32.1,10.3,32.3,10.3,32.4z"/>
<path class="st0" d="M17.1,19.7l-0.1,0.1C17,19.9,16.9,20,17,20.2l0.7,6.5c0,0.1,0,0.3,0.1,0.4l0.4,1.5c0,0.1,0.1,0.3,0.1,0.4
	l0.3,3.8c0,0.1,0.1,0.2,0.1,0.3l0.3,0.3c0.1,0.1,0.2,0.1,0.3,0.1l1.8-0.2c0.1,0,0.2-0.1,0.3-0.2l0.1-0.2c0.1-0.1,0.1-0.2,0.1-0.4
	l-0.9-8.2c0-0.1,0-0.2,0.1-0.3c0.1,0,0.1,0,0.2,0.1c0,0.1,0.1,0.2,0.2,0.3l5,6.6l0.3,0.3l0.3,0.4c0.1,0.1,0.2,0.2,0.3,0.3l0.5,0.3
	c0.1,0.1,0.2,0.1,0.4,0.1l0,0c0.1,0,0.2,0.1,0.3,0.2c0.1,0.1,0.2,0.1,0.3,0.1h0.4c0.1,0,0.3-0.1,0.4-0.2l0.1-0.1
	c0.1-0.1,0.2-0.1,0.3-0.2c0.1,0,0.2-0.1,0.2-0.2l0-0.1c0.1-0.1,0.1-0.2,0.1-0.4l-0.3-3.9c0-0.1,0-0.3-0.1-0.4c0-0.1-0.1-0.2-0.1-0.3
	c0-0.1,0-0.3,0-0.4l0,0c0-0.1,0-0.3,0-0.4l-0.9-7.4c0-0.1-0.1-0.2-0.2-0.3c-0.1,0-0.2,0-0.4,0l0,0c-0.1,0-0.3,0.1-0.4,0.1l-0.6,0.1
	c-0.1,0-0.3,0-0.4,0.1l-0.4,0.1c-0.1,0-0.2,0.1-0.3,0.3c0,0.1,0,0.3,0,0.4l1,7.9c0,0.1,0,0.2-0.1,0.3c-0.1,0.1-0.2,0-0.3-0.1
	l-5.9-7.9c-0.1-0.1-0.2-0.2-0.3-0.2L20,19.4c-0.1,0-0.3-0.1-0.4,0l-2,0.2C17.4,19.5,17.2,19.6,17.1,19.7z"/>
<path class="st0" d="M39.3,17c-4.2,0.4-6.4,4.1-6,8.2c0,0.3,0.1,0.7,0.2,1c0.1,0.3,0.2,0.3,0.3,0.6c0,0.1,0,0.4,0.1,0.5
	c0.8,2.2,2.8,3.8,5.1,4.3c0.1,0,0.3,0,0.4,0c0.1,0,0.2,0,0.3,0c0.1,0,0.3,0.1,0.4,0.1c0.3,0,0.5,0,0.8,0c0.2-0.1,0.3-0.1,0.5-0.2
	c0.2,0,0.2,0.1,0.4,0l0.3-0.1c0.1,0,0.2-0.2,0.3-0.3s0.3,0,0.4-0.1c0.7-0.4,1.4-1,1.9-1.7l0.1,0.1c0.1,0.1,0.2,0.2,0.2,0.3l0.1,0.5
	c0,0.1,0.1,0.2,0.2,0.3l0,0c0.1,0.1,0.2,0.1,0.3,0.1c0.1,0,0.2,0,0.3-0.1c0.1,0,0.2,0,0.3,0l0,0c0.1,0,0.3,0.1,0.4,0h0.1
	c0.1,0,0.2-0.1,0.3-0.2l0,0c0.1-0.1,0.1-0.3,0.2-0.4v-0.1c0-0.1,0-0.3,0-0.4l-0.6-5.7c0-0.1-0.1-0.2-0.2-0.3l-0.1-0.1
	c-0.1-0.1-0.2-0.1-0.3-0.1l-4.7,0.5c-0.1,0-0.3,0-0.4,0.1l0,0c-0.1,0.1-0.1,0.3,0,0.4v0.1c0,0.1,0,0.3,0.1,0.4l0.2,0.4
	c0.1,0.1,0.1,0.2,0.2,0.3l0.6,0.4c0.1,0.1,0.2,0.1,0.4,0.1l1.3-0.1c0.3,0,0.3,0.5,0.2,0.6c-0.3,1.5-1.6,2.5-3.1,2.5
	c-2.7,0.3-4.1-1.9-4.3-4.2s0.7-4.8,3.4-5.1c1.2-0.1,3,1.3,3,1.3c0.1,0.1,0.2,0.1,0.4,0.1l0.6,0c0.1,0,0.3,0.1,0.4,0.1l0,0
	c0.1,0.1,0.2,0.1,0.4,0l1-0.6c0.1-0.1,0.2-0.2,0.2-0.3c0,0,0-0.1,0-0.1C44.6,18,41.8,16.8,39.3,17z"/>
<path class="st0" d="M51.5,16.2c-0.1,0-0.2,0.1-0.3,0.1c-0.1,0-0.1,0-0.2,0c0,0-0.1,0-0.3,0l0,0c-0.1,0-0.2,0.1-0.3,0.1
	c-0.1,0.1-0.1,0.2-0.1,0.3c0,0.1,0,0.2,0,0.3c0,0.1,0,0.2,0,0.3c0,0.1,0,0.2,0,0.3l1.3,10.6c0,0.1,0,0.3,0,0.4l0.1,0.6
	c0,0.1,0.1,0.2,0.2,0.3l0.4,0.3c0.1,0.1,0.2,0.1,0.4,0.1h0.1c0.1,0,0.3,0,0.4,0l0,0c0.1,0,0.3,0,0.4,0l7.4-0.8c0.1,0,0.2,0,0.3-0.1
	c0.1-0.1,0.2-0.1,0.3-0.1c0.1,0,0.2-0.1,0.3-0.2v-0.1c0.1-0.1,0.1-0.2,0.2-0.4l0.2-0.7c0-0.1,0-0.2-0.1-0.3
	c-0.1-0.1-0.2-0.1-0.3-0.1h-0.4c-0.1,0-0.2,0-0.3,0h-0.2c-0.1,0-0.1,0-0.2,0c-0.1,0-0.2,0-0.3,0v0c-0.1,0.1-0.2,0.1-0.4,0.1h-0.2
	c-0.1,0-0.2,0-0.3-0.1l-0.1-0.1c0-0.1-0.2-0.1-0.3-0.1s-0.1,0.1-0.2,0.1s0,0.1-0.1,0.2c-0.1,0-0.1,0.1-0.2,0.1l-0.5,0
	c-0.1,0-0.2-0.1-0.3-0.2c-0.1,0-0.1-0.1-0.1-0.1c0-0.1-0.1-0.1-0.2-0.1c-0.1,0-0.1,0-0.2,0c-0.1,0-0.2,0-0.2,0
	c-0.1,0.1-0.2,0.2-0.3,0.2l0,0c-0.1,0-0.3,0-0.3-0.1l-0.1-0.1c-0.1-0.1-0.2-0.1-0.3-0.1h-0.3l-1.1,0.1c-0.1,0-0.2-0.1-0.2-0.2
	c0,0,0,0,0,0L54.1,24c0-0.1,0.1-0.2,0.2-0.2l2.4-0.3c0.1,0,0.2-0.1,0.3-0.2l0.1-0.1c0.1-0.1,0.2-0.2,0.2-0.2
	c0.1-0.1,0.2-0.1,0.3-0.2c0.1,0,0.2,0,0.3,0c0.1,0,0.2,0,0.3,0h0.1c0.1,0,0.3,0,0.4,0h0.5c0.1,0,0.3,0,0.4,0h0.3
	c0.1,0,0.2-0.1,0.4-0.1c0.1,0,0.1-0.1,0.1-0.2c0-0.1,0-0.2-0.1-0.3c0-0.1,0-0.2,0-0.3v-0.1c0-0.1,0-0.3,0-0.4L60.4,21
	c-0.1-0.1-0.1-0.2-0.2-0.3L60,20.7c-0.1-0.1-0.2-0.1-0.4-0.1l-5.6,0.6c-0.1,0-0.2,0-0.3-0.1l0,0c-0.1-0.1-0.1-0.2-0.2-0.4L53.5,19
	c0-0.1,0-0.2,0.1-0.3c0.1,0,0.2-0.1,0.3-0.1l6-0.6c0.1,0,0.3-0.1,0.4-0.1l0.2-0.2c0.1-0.1,0.1-0.2,0.1-0.3c0-0.1,0-0.1,0-0.2
	c0-0.1,0-0.2,0-0.3l-0.1-1.1c0-0.1-0.1-0.3-0.1-0.4c-0.1-0.1-0.2-0.2-0.3-0.2l-0.5,0.1l-0.4,0.1l-7.3,0.8
	C51.7,16.2,51.6,16.2,51.5,16.2z"/>
<path class="st0" d="M11.5,40c0,0.1,0,0.2,0.1,0.3l0.2,0.1c0.1,0.1,0.2,0.1,0.3,0l0.1-0.1c0.1-0.1,0.1-0.2,0.1-0.3l-0.1-0.3
	c0-0.1,0-0.3-0.1-0.4L12.2,38c0-0.1,0-0.2,0.1-0.3c0,0,0.1,0,0.2,0.1l0.4,0.9c0.1,0.1,0.1,0.2,0.1,0.3c0,0.1,0.1,0.2,0.1,0.3
	l0.2,0.4c0.1,0.1,0.2,0.2,0.3,0.2h0.3c0.1,0,0.2-0.1,0.3-0.2l0.1-0.3c0-0.1,0.1-0.3,0.1-0.3c0-0.1,0-0.2,0-0.3l0.3-1.3
	c0-0.1,0.1-0.2,0.1-0.2c0.1,0.1,0.1,0.2,0.1,0.2l0.2,2c0,0.1,0.1,0.2,0.1,0.3c0.1,0.1,0.2,0.1,0.3,0.1c0.1,0,0.2-0.1,0.3-0.1l0,0
	c0.1-0.1,0.1-0.2,0.1-0.3l-0.3-3.1c0-0.1-0.1-0.3-0.2-0.4l-0.2-0.2c-0.1-0.1-0.2-0.2-0.3-0.2l-0.3,0c-0.1,0-0.3,0-0.4,0h-0.1
	C14.1,35.8,14,35.9,14,36c0,0.1,0,0.3,0,0.4v0.1c0,0.1,0,0.3,0,0.4l-0.3,1.6c0,0.1,0,0.1-0.1,0.2l-0.1-0.2l-1.1-2.3
	c-0.1-0.1-0.2-0.2-0.3-0.2L12,35.9c-0.1,0-0.3,0-0.4,0L11.4,36c-0.1,0.1-0.2,0.2-0.3,0.3L11,36.5c-0.1,0.1-0.1,0.2-0.1,0.4
	c0,0.1,0.1,0.3,0.2,0.4l0.1,0.2c0.1,0.1,0.1,0.2,0.1,0.4l0.2,1.8C11.6,39.7,11.6,39.8,11.5,40L11.5,40z"/>
<path class="st0" d="M19.4,39.4L19.4,39.4c0.1,0,0.2,0,0.4,0c0.1,0,0.2-0.1,0.2-0.1c0-0.1,0.1-0.2,0.2-0.3v-0.1
	c0.1-0.1,0.1-0.2,0.3-0.3c0.1-0.1,0.2-0.1,0.4-0.1l0.7-0.1c0.1,0,0.2,0,0.3,0c0.1,0,0.2,0.1,0.2,0.2l0.1,0.1
	c0.1,0.1,0.1,0.2,0.2,0.3c0,0.1,0.1,0.1,0.1,0.1c0.1,0,0.3-0.1,0.4-0.2c0.1-0.1,0.1-0.2,0.1-0.3l0,0c0-0.1,0-0.3-0.1-0.4
	c-0.2-0.2-0.3-0.5-0.4-0.7c0-0.2-0.4-0.8-0.4-0.8l-0.8-1.6C21.2,35.1,21.1,35,21,35l-0.5,0.1c-0.1,0-0.2,0.1-0.3,0.2l-1,3.8
	c-0.1,0.1,0,0.2,0.1,0.3C19.3,39.4,19.4,39.4,19.4,39.4z M20.8,36.8c0-0.1,0-0.2,0.1-0.2c0.1,0,0.2,0.1,0.3,0.2l0.1,0.5
	c0,0.1,0,0.2-0.1,0.3l-0.1,0.1c-0.1,0.1-0.2,0.1-0.4,0h-0.1c-0.1-0.1-0.2-0.2-0.1-0.3L20.8,36.8z"/>
<path class="st0" d="M21.5,34.6c0.1,0,0.2-0.1,0.3-0.2c0-0.1,0-0.2,0-0.4c-0.1-0.1-0.2-0.2-0.3-0.2c-0.1,0-0.3,0-0.4,0
	c-0.1,0.1-0.3,0.2-0.4,0.3c0,0.1,0,0.2,0,0.2c0,0,0,0,0,0c0.1,0.1,0.2,0.1,0.3,0.2C21.2,34.6,21.4,34.6,21.5,34.6z"/>
<path class="st0" d="M20,34.7c0.1,0,0.2,0,0.3,0c0.1,0,0.2-0.1,0.2-0.2s0.1-0.3,0-0.3s-0.1-0.2-0.3-0.2c-0.1,0-0.3,0-0.4,0
	c-0.1,0.1-0.2,0.1-0.2,0.3c0,0.1,0,0.2,0.1,0.2C19.8,34.6,19.9,34.6,20,34.7z"/>
<path class="st0" d="M26.8,36.4l1.4,1.8c0.1,0.1,0.2,0.2,0.3,0.3h0.1c0.1,0.1,0.3,0.1,0.5,0.1l0,0c0.1,0,0.1-0.1,0.1-0.2
	c0-0.1,0-0.2,0-0.4l-0.1-2.5c0-0.1-0.1-0.3-0.1-0.4c-0.1-0.1-0.1-0.2-0.2-0.4l0-0.2c0-0.1-0.1-0.2-0.2-0.3c-0.1-0.1-0.1-0.1-0.2-0.1
	c-0.1,0-0.2,0.1-0.2,0.2C28,34.5,28,34.7,28,34.8l0.2,1.5c0,0.1,0,0.2-0.1,0.2c-0.1,0-0.2,0-0.3-0.1l-1.4-1.8
	c-0.1-0.1-0.2-0.1-0.3-0.1H26c-0.1,0-0.2,0.1-0.3,0.2l0,0c-0.1,0.1-0.1,0.2-0.2,0.3l-0.1,0.3c0,0.1,0,0.3,0,0.4l0.1,0.9
	c0,0.1,0,0.3,0,0.4v0.2c0,0.1,0.1,0.3,0.1,0.4l0,0.1c0.1,0.1,0.1,0.2,0.1,0.3c0,0.1,0,0.2,0,0.3c0,0.1,0,0.2,0.1,0.3l0,0
	c0.1,0.1,0.2,0.1,0.3,0.1c0.1,0,0.2-0.1,0.2-0.2c0-0.1,0-0.2,0-0.3c0-0.1-0.1-0.2-0.1-0.2c-0.1-0.1-0.1-0.2,0-0.3l0,0
	c0.1-0.1,0.1-0.2,0.1-0.4l-0.1-1c0-0.1,0-0.2,0.1-0.3C26.6,36.1,26.7,36.2,26.8,36.4C26.8,36.3,26.8,36.4,26.8,36.4z"/>
<path class="st0" d="M32.2,34.5c-0.1,0.1-0.1,0.2-0.1,0.4l0.2,1.6c0,0.1,0.1,0.3,0.1,0.4l0,0c0.1,0.1,0.1,0.2,0.1,0.3
	c0,0.1,0,0.2,0,0.3c0,0.1,0,0.2,0.1,0.3c0.1,0.1,0.1,0.1,0.2,0.1c0.1,0,0.2-0.1,0.2-0.2c0.1-0.1,0.1-0.2,0-0.3
	c-0.1-0.1-0.1-0.2-0.1-0.2c0-0.1,0.1-0.2,0.2-0.3c0.1-0.1,0.1-0.2,0.1-0.3v-0.1c0-0.1,0-0.2-0.1-0.3c0-0.1-0.1-0.2-0.1-0.3
	c0-0.1,0-0.2,0.1-0.3c0.1,0,0.2,0,0.2,0.1c0.1,0.1,0.1,0.2,0.2,0.3l0.2,0.3l0.3,0.5l0.3,0.3l0.4,0.5c0.1,0.1,0.2,0.2,0.3,0.3h0.1
	c0.1,0.1,0.2,0.1,0.4,0.1h0.1c0.1,0,0.2-0.1,0.2-0.2c0,0,0,0,0,0c0-0.1,0-0.2-0.1-0.3c-0.1-0.1-0.1-0.2,0-0.3l0.1-0.2
	c0.1-0.1,0.1-0.2,0.1-0.4L35.7,36c0-0.1,0-0.2-0.1-0.3c0-0.1-0.1-0.2-0.1-0.3v-0.3c0-0.1,0-0.3,0-0.4v-0.5c0-0.1-0.1-0.2-0.2-0.3
	l-0.1-0.1c-0.1-0.1-0.2-0.1-0.3-0.1c-0.1,0-0.2,0.1-0.2,0.1c0,0.1,0,0.2,0,0.3l0.2,1.5c0.1,0.1,0,0.2,0,0.3c-0.1,0.1-0.2,0-0.3,0
	c0,0,0-0.1,0-0.1l-1.3-1.7C33.2,34,33.1,34,33,34c-0.1,0-0.2,0.1-0.3,0.2L32.2,34.5z"/>
<path class="st0" d="M39.4,37.1c0,0.1,0.1,0.2,0.2,0.2l0.1,0.1c0.1,0.1,0.2,0.1,0.3,0.1c0.1,0,0.2-0.1,0.3-0.1
	c0.1-0.1,0.1-0.2,0.1-0.3c0-0.1-0.1-0.2-0.2-0.3l-0.1-0.1c-0.1-0.1-0.1-0.2-0.1-0.3c0-0.1,0.1-0.2,0.1-0.3l0.1-0.2
	c0.1-0.1,0.1-0.2,0.1-0.4l-0.1-1c0-0.1,0-0.2-0.1-0.4c0-0.1-0.1-0.2-0.2-0.3l0,0c-0.1-0.1-0.1-0.2-0.1-0.3c0-0.1,0-0.1,0-0.2
	c0-0.1-0.1-0.1-0.1-0.2c-0.1,0-0.1,0-0.2,0c-0.1,0.1-0.1,0.1-0.1,0.2c0,0.1-0.1,0.2-0.1,0.3c-0.2,0.2-0.2,0.4-0.2,0.7l0.2,1.5
	c0,0.1,0.1,0.3,0.2,0.3l0.1,0.1c0.1,0.1,0.1,0.2,0.2,0.3c0,0.1,0,0.2-0.1,0.3C39.5,37,39.4,37,39.4,37.1z"/>
<path class="st0" d="M45.1,36.2h-0.2c-0.1,0-0.3-0.1-0.4-0.2c-0.1-0.1-0.3-0.1-0.4-0.3c-0.1-0.1-0.2-0.2-0.3-0.2
	c-0.1,0-0.2,0-0.2,0.1c-0.1,0.1-0.1,0.2-0.1,0.3c0,0.1,0.1,0.3,0.2,0.4c0.2,0.2,0.4,0.3,0.6,0.4c0.3,0.1,0.5,0.1,0.8,0
	c0.4,0,0.9-0.2,1.2-0.4c0.3-0.3,0.4-0.7,0.3-1.2c0-0.3-0.2-0.6-0.5-0.7c-0.2-0.1-0.5-0.2-0.8-0.3c-0.1,0-0.5,0-0.6,0
	c-0.4,0-0.6-0.2-0.6-0.4c0-0.2,0.1-0.3,0.2-0.4c0.1-0.1,0.3-0.2,0.4-0.2c0.3,0,0.5,0.1,0.7,0.3c0.1,0.1,0.2,0.1,0.3,0.1
	c0.1,0,0.3,0,0.4,0c0.1-0.1,0.2-0.3,0.1-0.4c-0.1-0.2-0.3-0.3-0.5-0.5c-0.2-0.1-0.4-0.2-0.6-0.3c-0.2,0-0.4,0-0.7,0
	c-0.4,0-0.8,0.2-1,0.6c-0.2,0.2-0.2,0.5-0.2,0.7c0,0.5,0.4,0.9,0.8,1c0.2,0.1,0.5,0.2,0.8,0.2c0.5,0,0.9,0.1,1,0.5
	c0,0.2-0.1,0.3-0.2,0.4C45.4,36.1,45.3,36.2,45.1,36.2z"/>
<path class="st0" d="M50.4,34.7c0.1,0,0.3,0,0.4,0h0.1c0.1,0,0.2,0.1,0.3,0.2l0.7,0.8c0.1,0.1,0.2,0.2,0.3,0.3l0.1,0.1
	c0.1,0.1,0.2,0.1,0.4,0.1h0.2c0.1,0,0.2-0.1,0.3-0.2l0,0c0-0.1,0-0.2-0.1-0.3l-0.1-0.1c-0.1-0.1-0.2-0.2-0.3-0.3L51.5,34
	c-0.1-0.1-0.1-0.2-0.2-0.4v-0.1c0-0.1,0-0.3,0.1-0.4l0.6-0.7c0.1-0.1,0.2-0.2,0.3-0.3c0.1-0.1,0.1-0.2,0-0.3
	c-0.1-0.1-0.2-0.1-0.3-0.1h-0.4c-0.1,0-0.2,0.1-0.3,0.2l-0.9,1.2c-0.1,0.1-0.2,0.1-0.3,0.1c-0.1,0-0.2-0.1-0.2-0.3v-0.5
	c0-0.1-0.1-0.2-0.1-0.3c-0.1-0.1-0.2-0.1-0.3-0.1c-0.1,0-0.2,0.1-0.3,0.2l0,0c-0.1,0.1-0.1,0.2-0.1,0.3c0,0.1,0,0.2,0,0.4l0.2,1.9
	c0,0.1,0.1,0.3,0.1,0.4l0.3,0.5c0.1,0.1,0.2,0.2,0.3,0.2c0.1,0,0.2-0.1,0.2-0.2v-0.2c0-0.1,0-0.3,0-0.4V35
	C50.3,34.9,50.3,34.8,50.4,34.7z"/>
<path class="st0" d="M57.8,31.3L57.8,31.3c-0.1,0-0.3,0-0.4,0h-0.1c-0.1,0-0.3,0-0.3,0.1c-0.1,0.1-0.1,0.2-0.1,0.3l-0.9,3.6
	c0,0.1,0,0.3,0,0.3s0.1,0.1,0.2,0.1c0.1,0,0.2-0.1,0.3-0.1h0.1c0.1-0.1,0.2-0.2,0.3-0.3v-0.1c0-0.1,0.1-0.2,0.2-0.3
	c0.1-0.1,0.2-0.1,0.3-0.1l0.7-0.1c0.1,0,0.2,0,0.4,0c0.1,0.1,0.2,0.1,0.3,0.2l0.2,0.3c0.1,0.1,0.2,0.2,0.3,0.2l0,0
	c0.1,0,0.2-0.1,0.3-0.2l0.1-0.2c0-0.1,0-0.3,0-0.4l-1.5-3C58,31.5,57.9,31.4,57.8,31.3z M57.9,33.8c-0.1,0.1-0.2,0.2-0.3,0.2h-0.2
	c-0.1,0-0.2,0-0.3-0.1c0-0.1,0-0.2,0-0.3l0.1-0.6c0-0.1,0.1-0.4,0.2-0.4s0.2,0.2,0.3,0.3l0.2,0.5C58,33.6,58,33.7,57.9,33.8z"/>
<path class="st0" d="M68,33.8l0.2,0.3c0.1,0.1,0.2,0.1,0.3,0.2c0.1,0,0.2-0.1,0.3-0.2l0.1-0.1c0.1-0.1,0.2-0.2,0.3-0.2l1.1-0.1
	c0.1,0,0.3,0,0.3,0.1l0.3,0.3c0.1,0.1,0.2,0.1,0.3,0.1c0.1,0,0.2-0.1,0.2-0.2l0.1-0.3c0-0.1,0-0.3,0-0.4l-0.3-0.8
	c0-0.1-0.1-0.3-0.1-0.4l-0.8-1.5c-0.1-0.1-0.2-0.2-0.3-0.3l-0.1-0.1C69.8,30,69.7,30,69.5,30L69,30c-0.1,0-0.2,0.1-0.3,0.2L68,33.4
	C67.9,33.5,67.9,33.6,68,33.8z M69.1,32.3l0.1-0.5c0-0.1,0.1-0.2,0.2-0.2c0.1,0,0.2,0.1,0.3,0.2l0.2,0.5c0,0.1,0,0.2,0,0.4
	c-0.1,0.1-0.2,0.2-0.3,0.2h-0.1c-0.1,0-0.2,0-0.3-0.1C69.1,32.6,69.1,32.5,69.1,32.3L69.1,32.3z"/>
<path class="st0" d="M70,29.6c0.2-0.1,0.3-0.3,0.3-0.5c-0.1-0.1-0.2-0.2-0.3-0.3c-0.2,0-0.3,0-0.5,0.1c-0.2,0.1-0.1,0.3,0,0.5
	S69.9,29.7,70,29.6z"/>
<path class="st0" d="M68.4,29.7c0.2,0,0.3-0.1,0.4-0.2c0.1-0.2,0-0.4-0.1-0.5c0,0,0,0-0.1,0c-0.1,0-0.3,0-0.4,0
	c-0.2,0.1-0.2,0.4-0.2,0.5C68.2,29.6,68.3,29.7,68.4,29.7z"/>
<path class="st0" d="M77.9,30.3c-0.1-0.6-1.1-1-1.1-1c-0.1,0-0.3-0.1-0.4,0l-1.2,0.1c-0.1,0-0.2,0.1-0.3,0.2l-0.2,0.3
	c-0.1,0.1-0.1,0.2-0.1,0.4l0.2,2.1c0,0.1,0,0.2,0.1,0.3c0,0.1,0,0.2,0.1,0.3c0,0.1,0,0.2,0,0.3c0,0.1,0,0.2,0.1,0.3
	c0.1,0.1,0.2,0.2,0.3,0.2h0.1c0.1,0,0.2-0.1,0.3-0.2c0-0.1,0.1-0.2,0.1-0.3c0-0.1,0-0.1-0.1-0.2c0-0.1-0.1-0.2-0.1-0.3v-0.2
	c0-0.1,0-0.3,0.1-0.4v-0.1c0.1-0.1,0.2-0.2,0.3-0.2l0.7-0.1c0.2,0,0.5,0.2,0.6,0.6c0,0.2,0.1,0.3,0.2,0.4c0,0.1,0.1,0.2,0.2,0.2
	c0.1,0,0.2-0.1,0.3-0.2c0,0,0.3-0.2,0.3-0.5c0-0.1,0-0.2-0.1-0.3c-0.1-0.4-0.1-0.5-0.4-0.6c-0.1,0-0.1-0.2,0-0.2
	C77.9,31.1,78,30.7,77.9,30.3z M76.7,31.1c-0.1,0.1-0.2,0.1-0.4,0.1H76c-0.1,0-0.3,0-0.4-0.1c-0.1-0.1-0.2-0.2-0.2-0.3v-0.3
	c0-0.1,0-0.2,0-0.4c0-0.1,0.2-0.1,0.3-0.1l0.6-0.1c0.4,0,0.6,0.1,0.7,0.5C77.1,30.7,76.9,31,76.7,31.1z"/>
<path class="st0" d="M13,53.3c0,0.1,0.1,0.3,0.2,0.3l0.9,0.9c0.1,0.1,0.2,0.1,0.3,0.1l0.9-0.1c0.1,0,0.2-0.1,0.3-0.2l0.4-0.5
	c0.1-0.1,0.1-0.2,0.1-0.4l-1.2-11.7c0-0.1-0.1-0.2-0.2-0.3h-0.1c-0.1,0-0.3,0-0.4,0c0,0-1.3,0.1-1.4,0.2c-0.2,0-0.4,0-0.6,0
	c-0.1,0-0.3,0-0.4,0.1c0,0,0,0.2,0,0.3L13,53.3z"/>
<path class="st0" d="M16.9,41.5c0,0.1,0,0.3,0,0.4c0,0.1,0,0.3,0,0.4l1.1,10.6c0,0.1,0.1,0.3,0.1,0.4c0.1,0.1,0.2,0.2,0.3,0.3
	c0.1,0.1,0.2,0.2,0.3,0.3l0.1,0.1c0.1,0.1,0.2,0.1,0.3,0.1l7.6-0.8c0.1,0,0.2-0.1,0.3-0.2l0,0c0.1-0.1,0.1-0.2,0.1-0.4l-0.1-1.4
	c0-0.1-0.1-0.2-0.1-0.4l0,0c-0.1-0.1-0.2-0.1-0.3-0.1l-5,0.5c-0.1,0-0.3,0-0.4,0.1l0,0c-0.1,0-0.2,0-0.3-0.1
	c-0.1-0.1-0.1-0.2-0.1-0.3l-1-9c0-0.1,0-0.8-0.1-0.8L19.5,41c-0.2,0-0.3,0-0.5,0c-0.1,0-0.2,0.1-0.3,0.1c-0.1,0-0.1,0-0.2,0L17.5,41
	c-0.1,0-0.3,0.1-0.4,0.1l0,0C17,41.2,16.9,41.3,16.9,41.5L16.9,41.5z"/>
<path class="st0" d="M28.3,52.9l0.1,0.1c0.1,0.1,0.2,0.1,0.3,0.1l8-0.8c0.1,0,0.2-0.1,0.3-0.2l0-0.1c0.1-0.1,0.1-0.2,0.1-0.4
	l-0.2-1.4c0-0.1-0.1-0.2-0.1-0.3c-0.1-0.1-0.2-0.1-0.3-0.1l-5.3,0.6H31h-0.2c0,0,0-0.1-0.1-0.2l-1-9.9c0-0.1-0.1-0.2-0.2-0.3
	l-0.3-0.2c-0.1-0.1-0.2-0.1-0.4-0.1h-0.5c-0.1,0-0.3,0-0.4,0.1l-0.2,0.1c-0.1,0.1-0.2,0.1-0.3,0c-0.1,0-0.2-0.1-0.3-0.1
	c-0.1,0-0.2,0.1-0.3,0.2c0,0.1,0,0.2,0,0.3c0,0.1,0.1,0.2,0.1,0.3c0,0.1,0,0.2,0,0.3c0,0.1,0,0.2,0,0.4l1.2,11.1
	C28.1,52.6,28.2,52.7,28.3,52.9z"/>
<path class="st0" d="M38.3,51.9L38.3,51.9c0.1,0.2,0.3,0.2,0.4,0.2l5.6-0.6c0.1,0,0.3-0.1,0.3-0.2l0.2-0.2c0.1-0.1,0.2-0.1,0.3,0
	c0.1,0.1,0.2,0.1,0.3,0.1l0,0c0.1,0,0.3-0.1,0.4-0.1l0.2-0.2c0.1-0.1,0.2-0.1,0.3-0.2l0.7-0.2c0.1,0,0.2,0,0.3,0.1l0.1,0.3
	c0,0.1,0.1,0.1,0.2,0.1c0,0,0,0,0,0l0.1-0.1c0.1-0.1,0.2-0.2,0.2-0.3l-0.2-1.5c0-0.1-0.1-0.2-0.2-0.3c-0.1-0.1-0.2-0.1-0.3-0.1
	l-1.7,0.2c-0.1,0-0.2,0.1-0.3,0.2c-0.1,0.1-0.1,0.1-0.2,0.2c-0.1,0-0.2,0-0.3-0.1c-0.1-0.1-0.2-0.1-0.3,0l-0.2,0.2
	c-0.1,0.1-0.2,0.1-0.3,0.1c-0.1,0-0.2-0.1-0.3-0.2l-0.1-0.2c-0.1-0.1-0.2-0.1-0.3-0.1c-0.1,0-0.3,0.1-0.4,0.2l0,0
	c-0.1,0.1-0.2,0.1-0.4,0.1h-0.1c-0.1,0-0.3,0-0.4,0h-0.5c-0.1,0-0.2,0-0.3,0.1c-0.1,0-0.2,0-0.3,0c-0.1,0-0.1-0.3-0.2-0.4
	c0-0.1-0.1-0.3-0.1-0.4l-0.2-2.1c0-0.1,0.1-0.2,0.2-0.3h0.1c0.1,0,0.2,0,0.4,0c0.1,0,0.2,0,0.3,0c0.1,0,0.2-0.1,0.3-0.1l0.2-0.2
	c0.1-0.1,0.2-0.1,0.3-0.1c0.1,0,0.2,0,0.3-0.1l0,0c0.1,0,0.3-0.1,0.4-0.1h0.1c0.1,0,0.2,0,0.3-0.1c0.1,0,0.2,0,0.3,0.1
	c0.1,0.1,0.2,0.2,0.3,0.2h0.1c0.1,0,0.3,0,0.4,0c0.1,0,0.3,0,0.4-0.1c0.1,0,0.3-0.1,0.4-0.1h0.3c0.1,0,0.3,0,0.4-0.1l0.2-0.1
	c0.1,0,0.2-0.1,0.3-0.2c0.1-0.1,0.1-0.2,0.1-0.3c0-0.1,0-0.2,0-0.4v-0.1c0-0.1,0-0.3,0-0.4v-0.4c0-0.1-0.1-0.3-0.2-0.3l-0.3-0.3
	c-0.1-0.1-0.2-0.1-0.3-0.1l-5.3,0.6c-0.1,0-0.2,0-0.3-0.1C40,43.5,40,43.4,40,43.3l-0.2-1.8c0-0.1,0-0.2,0.1-0.3
	c0.1-0.1,0.2-0.1,0.3-0.1l5.5-0.5c0.1,0,0.2-0.1,0.4-0.1c0.1-0.1,0.2-0.2,0.2-0.3l0.1-0.7c0-0.1,0-0.3,0-0.4v-0.3
	c0-0.1-0.1-0.2-0.2-0.3L46,38.2c-0.1-0.1-0.2-0.1-0.4-0.1l-7.9,0.8c-0.1,0-0.2,0-0.3,0.1c-0.1,0-0.2,0-0.3,0c-0.1,0-0.2,0-0.3,0.1
	c0,0.1,0,0.2,0,0.3l1.3,12.1C38.2,51.6,38.2,51.8,38.3,51.9z"/>
<path class="st0" d="M73.7,47.2c-0.1,0.1-0.1,0.2-0.1,0.3v0.3c0,0.1,0.1,0.2,0.2,0.3l0.2,0.1c0.1,0.1,0.2,0.1,0.4,0.1l7.7-0.8
	c0.1,0,0.2-0.1,0.3-0.2l0.4-0.5c0.1-0.1,0.1-0.2,0.1-0.4l-0.1-1.1c0-0.1-0.1-0.2-0.2-0.3c-0.1-0.1-0.2-0.1-0.3-0.1l0,0
	c-0.1,0-0.2,0.1-0.3,0.2c0,0.1-0.1,0.2-0.1,0.3c0,0.1,0,0.3-0.1,0.4c-0.1,0.1-0.2,0.2-0.4,0.2l-0.3-0.1c-0.1,0-0.2-0.1-0.3-0.3
	c0-0.1,0-0.3,0-0.3c0-0.1-0.1-0.2-0.2-0.2h-0.3l-3.7,0.4c-0.1,0-0.2-0.1-0.2-0.2c0,0,0,0,0,0l-1-9.8c0-0.1-0.1-0.2-0.2-0.3l-0.4-0.2
	c-0.1,0-0.3-0.1-0.4-0.1l-1.2,0.1c-0.2,0-0.3,0.1-0.5,0.1l-0.1,0.2c-0.1,0.1-0.2,0.2-0.1,0.3l1,9.2c0,0.1,0,0.3,0,0.4l0,0
	c0,0.1,0,0.3,0,0.4l0,0c0,0.1,0,0.2,0,0.3c0,0,0.1,0.1,0.2,0.2l0.1,0.1c0.1,0.1,0.2,0.1,0.2,0.3c0,0.1,0,0.2-0.1,0.3L73.7,47.2z"/>
<path class="st0" d="M72.4,9.2c0.1,0,0.2,0,0.3-0.1c0.1-0.1,0.2-0.1,0.2-0.2C73,8.9,73,8.8,73,8.7c0-0.1-0.1-0.1-0.2-0.1
	c-0.1,0-0.2,0-0.4,0l0,0c-0.1,0-0.2,0.1-0.2,0.2c0,0.1,0,0.2,0,0.3C72.3,9.2,72.3,9.2,72.4,9.2z"/>
<path class="st0" d="M74.6,8.9C74.7,9,74.9,9,75,9l0,0c0.1,0,0.2,0,0.3,0l0,0V8.6c0-0.1-0.1-0.2-0.2-0.2h-0.3h-0.3h-0.3
	c-0.1,0-0.1,0-0.1,0.1c0,0,0.1,0.1,0.2,0.2C74.4,8.7,74.5,8.8,74.6,8.9z"/>
<path class="st0" d="M71,47.6c-0.1,0.1-0.2,0.1-0.3,0l-0.2-0.1c-0.1-0.1-0.2-0.1-0.3-0.1c-0.1,0-0.2,0.1-0.2,0.2l-0.1,0.3
	c0,0.1,0,0.3,0.1,0.4l0.2,0.3c0.1,0.1,0.2,0.1,0.3,0.1l1.1-0.1c0.1,0,0.3,0,0.4-0.1h0.1c0.1,0,0.3,0,0.4,0h0.1
	c0.1,0,0.2-0.1,0.3-0.2l0.2-0.2c0.1-0.1,0.1-0.2,0-0.3c0,0-4.2-8.5-4.4-8.9s-0.5-0.6-0.6-1s-0.2-0.7-0.3-1s-0.5-0.9-0.5-0.9
	c-0.1-0.1-0.2-0.2-0.3-0.2l-2.7,0.3c-0.1,0-0.2,0.1-0.3,0.2c0,0-0.4,1.5-0.5,1.9s-0.3,1.2-0.3,1.6c-0.1,0.5-0.3,1.1-0.5,1.6l-1.8,7
	c0,0.1-0.1,0.2-0.2,0.2c-0.1,0-0.2-0.1-0.2-0.2l-0.4-5.1c0-0.1-0.1-0.2-0.1-0.3l-0.4-0.5c-0.2-0.1-0.4-0.1-0.7-0.1l-3.2,0.3
	c-0.1,0-0.3,0.1-0.4,0.1L55.2,43c-0.1,0.1-0.2,0.2-0.3,0.3l-0.2,0.3c-0.1,0.1-0.1,0.2-0.1,0.4v0.5c0,0.1,0.1,0.2,0.2,0.3H55
	c0.1,0,0.3,0.1,0.4,0.1l0.4,0.2c0.1,0.1,0.3,0.1,0.4,0.1l1.4-0.1c0.1,0,0.2,0.1,0.1,0.2s-1,2.8-2.9,3c-1.2,0.2-2.5-0.4-3.2-1.4
	c-0.1-0.2-0.1,0.1-0.2-0.1s-0.9,0.1-1,0s-0.6-0.5-0.7-0.7s-0.2-0.3,0-0.5s0.3-0.1,0.3-0.3s-0.4-0.2-0.4-0.3s0.2-0.4,0.5-0.3
	c0.2,0,0.4,0,0.5,0.1c0.2,0.1,0.4,0.1,0.3-0.5c-0.2-2.3,0.3-4.6,2.9-4.9c1.3-0.3,2.6,0.3,3.3,1.5c0,0.1,0.1,0.1,0.2,0.1l0.4,0h0.2
	c0.1,0,0.3,0,0.4,0l0,0c0.1,0,0.3,0,0.4,0l0.7-0.1c0.4-0.1,0.4-0.6,0.4-0.7c-0.9-2.5-3.6-3.3-6-3.1c-2.7,0.2-5,2.2-5.5,4.9
	C48.1,42.2,48,42.6,48,43c-0.1,0.5-0.1,1,0,1.5c0.4,3.8,3,6.6,7,6.2c1.3-0.1,3.3-2,3.3-2c0.1-0.1,0.2-0.1,0.3-0.1
	c0.1,0.1,0.1,0.2,0.1,0.3l0.1,0.5c0,0.1,0.1,0.2,0.2,0.3l0.2,0.1c0.1,0.1,0.2,0.1,0.4,0.1c0.1,0,0.2,0,0.3-0.1c0.1,0,0.2,0,0.2,0
	h0.3h0.3h0.3l2.3-0.2c0.1,0,0.2-0.1,0.3-0.2l0.6-2.4c0-0.1,0.1-0.2,0.2-0.3l0.2-0.1c0.1-0.1,0.2-0.1,0.4-0.1H65c0.1,0,0.3,0,0.4,0
	l0.2-0.1c0.1,0,0.2-0.2,0.2-0.3V46c0-0.1,0-0.2,0.1-0.3l0.4-0.4c0.1-0.1,0.2-0.2,0.3-0.2l0.2-0.1c0.1,0,0.1,0,0.2,0v0.3
	c0,0.1,0.1,0.2,0.2,0.2h0.2c0.1,0,0.3,0.1,0.4,0.1l0.5,0.2l0.4,0.2l0.2,0.1c0.1,0,0.3,0.1,0.4,0.1h0.3c0.1,0,0.3,0.1,0.4,0.1
	l0.6,0.4c0.1,0.1,0.2,0.2,0.3,0.3l0.2,0.2C71.1,47.3,71.1,47.4,71,47.6L71,47.6z M67.7,43.8L65.3,44c-0.1,0-0.2,0-0.3-0.1
	c-0.1-0.1-0.1-0.2-0.1-0.3l0.8-4c0-0.1,0.1-0.2,0.1-0.2s0.1,0,0.2,0.1s0.1,0.2,0.2,0.3c0.1,0.1,0.1,0.2,0.1,0.4
	c0,0.1,0.1,0.3,0.2,0.4c0,0,0.6,1.4,0.8,1.8c0.2,0.3,0.3,0.6,0.6,0.9c0.1,0.1,0.1,0.3,0.1,0.4C67.9,43.7,67.8,43.8,67.7,43.8
	L67.7,43.8z M69.6,42.4l-0.1,0.1c-0.1,0.1-0.2,0.1-0.2,0c0,0,0,0,0,0c0-0.1,0-0.3,0-0.4c0-0.1,0.1-0.2,0.2-0.2
	c0.1,0,0.2,0.1,0.3,0.2C69.7,42.2,69.7,42.3,69.6,42.4L69.6,42.4z"/>
<path class="st0" d="M64.8,15.6l0.8,7c0,0.1,0.1,0.3,0.2,0.4l0.1,0.1c0.1,0.1,0.2,0.1,0.3,0.1c0.1,0,0.2,0.1,0.2,0.2l0.1,0.2
	c0,0.1,0,0.3,0,0.4l-0.2,0.3c0,0.1,0,0.2,0,0.3c0,0.1,0.1,0.2,0.1,0.3l0.1,0.2c0,0.1,0,0.3,0,0.4l-0.2,0.5c-0.1,0.1-0.1,0.3-0.1,0.4
	v1.1c0,0.1,0.1,0.3,0.2,0.4l0.6,0.6c0.1,0.1,0.2,0.1,0.3,0.1l1.3-0.1c0.1,0,0.4,0,0.4-0.2L69,28c0.1-0.1,0.1-0.2,0.1-0.4l-0.9-8.3
	c0-0.1,0-0.2,0-0.2s0.1,0.1,0.2,0.1l4.2,5.6c0.1,0.1,0.2,0.2,0.3,0.3l0,0c0.1,0.1,0.2,0.1,0.4,0.1h0.1c0.1,0,0.3,0,0.4,0l0,0
	c0.1,0,0.2,0.1,0.2,0.3v0.2c0,0.1,0,0.3,0.1,0.4l0.2,0.7c0,0.1,0.1,0.2,0.3,0.1h0.1c0.1,0,0.2,0,0.3,0.1l0.1,0.1
	c0.1,0.1,0.2,0.2,0.3,0.3l0,0c0.1,0.1,0.2,0.1,0.4,0.1h0.1c0.1,0,0.2-0.1,0.3-0.2l0.4-0.4c0.1-0.1,0.1-0.2,0.2-0.3
	c0-0.1,0.1-0.1,0.2-0.1c0.1,0,0.2-0.1,0.3-0.1l0.3-0.4c0.1-0.1,0.1-0.2,0.1-0.3c0-0.1-0.1-0.2-0.1-0.3l0,0c-0.1-0.1-0.1-0.2-0.1-0.4
	l0,0c0-0.1,0-0.2,0.1-0.3c0-0.1,0-0.2,0-0.3c0-0.1-0.1-0.2-0.1-0.2c-0.1-0.1-0.1-0.2-0.1-0.3v-0.1c0-0.1,0-0.2,0-0.3
	c0-0.1,0-0.1,0-0.2c0-0.1-0.1-0.2-0.2-0.3c-0.1-0.1-0.1-0.2-0.1-0.3l0,0c0-0.1,0-0.2,0.1-0.3c0.1-0.1,0.1-0.2,0.1-0.3l0,0
	c0-0.1,0-0.3,0-0.4l-0.8-7.1c0-0.1-0.1-0.3-0.1-0.4v-0.1C76.1,14.1,76,14,75.9,14h-0.1c-0.1,0-0.3-0.1-0.4-0.1h-0.4
	c-0.1,0-0.3,0.1-0.4,0.1l0,0c-0.1,0-0.2,0-0.3,0c-0.1,0-0.2,0-0.3,0c-0.1,0-0.2,0.1-0.3,0.1l-0.1,0.1c-0.1,0.1-0.2,0.2-0.2,0.3
	l0.9,6.5c0,0.1,0,0.3,0.1,0.4v0.1c0,0.1,0.1,0.2,0.2,0.3c0.1,0,0.1,0.1,0.2,0.2c0,0.1,0,0.1-0.1,0.1c0,0.1-0.1,0.1-0.1,0.1
	c0,0.1,0,0.2,0,0.3v0.1c0,0.1,0,0.2,0,0.4c0,0.1-0.1,0.2-0.1,0.4c0,0.1-0.1,0.1-0.2,0.1c0,0,0,0,0,0h-0.2c-0.1,0-0.2-0.1-0.2-0.2
	l0,0c0-0.1,0-0.2,0-0.4c0-0.1-0.1-0.2-0.2-0.3L68,14.8c-0.1-0.1-0.2-0.1-0.3-0.1l-1,0.1c-0.1,0-0.2,0-0.3,0.1
	c-0.1,0-0.2,0.1-0.3,0.1c-0.1,0-0.1,0-0.2,0c-0.1,0-0.2,0-0.3,0h-0.1c-0.1,0-0.2,0.1-0.3,0.2L65,15.3C64.9,15.4,64.8,15.5,64.8,15.6
	z M75.7,21.3c0.1,0,0.1,0,0.1,0.1c0,0.1,0,0.1-0.1,0.2c0,0-0.1,0-0.1-0.1S75.7,21.3,75.7,21.3z M75.7,22.5c0-0.1,0.1-0.1,0.2-0.1
	h0.2c0.1,0,0.2,0.1,0.2,0.2c0,0,0,0,0,0v0.1c0,0.1-0.1,0.2-0.2,0.2c0,0,0,0,0,0l0,0c-0.1,0-0.2-0.1-0.3-0.2
	C75.7,22.7,75.7,22.6,75.7,22.5z"/>
<path class="st0" d="M73.7,5.3L73.7,5.3c-0.1-0.1-0.2-0.1-0.3-0.1c0,0-0.1,0.1-0.2,0.2v0.1c-0.1,0.1-0.1,0.2-0.1,0.3
	c0,0.1,0.1,0.1,0.2,0.1h0.1c0.1,0,0.2,0,0.3-0.1c0.1-0.1,0.1-0.2,0.1-0.3C73.9,5.4,73.8,5.3,73.7,5.3z"/>
<path class="st0" d="M69.2,6.4L69.2,6.4c0.2,0,0.3,0,0.3-0.2c0-0.1-0.1-0.2-0.2-0.2c0,0,0,0,0,0h-0.2c-0.1,0-0.2-0.1-0.3,0
	c0,0.1,0,0.1,0,0.2c0,0.1,0.1,0.1,0.1,0.2C69.1,6.4,69.1,6.4,69.2,6.4z"/>
<path class="st0" d="M87.4,48.5c0.1,0,0.2,0,0.3-0.1l0.1-0.1c0.1-0.1,0.1-0.2,0.1-0.4l0,0c0-0.1-0.1-0.2-0.2-0.3l-0.2-0.2
	c-0.1-0.1-0.2-0.1-0.3-0.1c-0.1,0-0.1,0-0.1-0.1s0.1-0.2,0.2-0.2l0,0c0.1,0,0.2-0.1,0.2-0.2c0-0.1-0.1-0.2-0.1-0.3
	c0-0.1-0.1-0.2-0.3-0.2c-0.1,0-0.2-0.1-0.3-0.2L86.7,46c0-0.1-0.1-0.1-0.3-0.3l-0.2-0.2c0-0.1-0.1-0.2-0.1-0.3c0-0.1,0-0.2,0-0.3
	c0-0.1,0-0.2-0.1-0.3c0-0.1,0-0.2,0-0.2c0-0.1,0.1-0.2,0.1-0.3v-0.1c0-0.1,0-0.1,0-0.2c0-0.1,0-0.1,0.1-0.1c0.1,0,0.2,0,0.3,0
	l0.3,0.2c0.1,0.1,0.1,0.1,0.2,0.2c0,0,0.1,0,0.2-0.1v-0.1c0.1-0.1,0.1-0.2,0.1-0.4L87,40.2c0-0.1-0.1-0.3-0.2-0.4l-0.2-0.3
	c-0.1-0.1-0.1-0.2-0.1-0.4v-0.4c0-0.1,0-0.3,0.1-0.4l0.1-0.1c0.1-0.1,0.1-0.2,0.1-0.4v-0.1c0-0.1,0-0.3-0.1-0.4
	c0-0.1-0.1-0.1-0.1-0.2s-0.1-0.2-0.2-0.1c-0.1,0-0.1,0.1-0.2,0.1c-0.1,0.1-0.2,0.1-0.3,0.1c-0.1,0-0.2,0-0.3,0
	c-0.1-0.1-0.2-0.2-0.2-0.3c0-0.1,0-0.2,0-0.3c-0.1-0.1-0.2-0.2-0.3-0.2l-0.3-0.1c-0.1,0-0.3,0-0.4,0h-0.1c-0.1,0-0.2,0.1-0.2,0.2
	c0,0.1,0,0.2,0,0.3l-0.1,0.2c0,0.1,0,0.3,0,0.4l0.4,3.8c0,0.1,0.1,0.3,0.1,0.4l0.4,0.8c0.1,0.1,0.1,0.3,0.1,0.4v0.3
	c0,0.1,0,0.2,0.1,0.3c0.1,0.1,0.1,0.2,0.1,0.3c0,0.1,0,0.3,0,0.4c0,0.1-0.1,0.2-0.2,0.3L85,44.7c-0.1,0-0.2,0.1-0.2,0.2
	s0,0.2,0.1,0.2s0.1,0,0.2,0c0,0,0.1,0,0.1,0c0.1,0,0.1,0,0.2,0c0.1,0,0.1,0.2,0.1,0.3c0,0.1,0,0.2,0,0.2c0,0.1-0.2,0.1-0.2,0.1
	s-0.1,0.2-0.2,0.2l0,0c0,0.2,0,0.4,0.1,0.5l0,0c0.1,0.1,0.1,0.1,0.2,0.1l0.2-0.1c0.1,0,0.1-0.1,0.2-0.1s0,0,0,0.1
	c-0.1,0.1-0.2,0.1-0.3,0.1c-0.1,0-0.2,0.1-0.2,0.2l-0.1,0.1c-0.1,0.1,0,0.2-0.1,0.3c0,0.2,0,0.3,0,0.5c0,0.2,0,0.5,0,0.6v0.2
	c0,0.1,0,0.3,0.1,0.4c0,0.1,0,0.2,0,0.4l-0.1,0.2c-0.1,0.1-0.1,0.2-0.2,0.2c-0.1,0-0.2,0.1-0.3,0.1c-0.1,0-0.2,0-0.3,0
	c-0.1,0-0.2,0-0.2,0c-0.1,0-0.2,0-0.3,0h-0.2c-0.1,0-0.2,0-0.3,0.1c-0.1,0.1-0.1,0.1-0.2,0.1c-0.1,0-0.2,0-0.3,0c-0.1,0-0.2,0-0.3,0
	l0,0c-0.1,0-0.2,0.1-0.3,0.2c-0.1,0.1-0.1,0.2-0.2,0.3l-0.1,0.2c-0.1,0.1-0.1,0.2,0,0.3c0.1,0.1,0.1,0.2,0.1,0.3
	c0,0.1,0,0.1-0.1,0.2c-0.1,0-0.2,0-0.3-0.1L81.7,51c-0.1-0.1-0.2-0.1-0.3-0.1c-0.1,0-0.2-0.1-0.3-0.1l-0.5-0.3
	c-0.1-0.1-0.2-0.1-0.3-0.1c-0.1,0-0.2,0.1-0.2,0.1c0,0.1-0.1,0.1-0.1,0.1c-0.1,0-0.2-0.1-0.2-0.2l0,0c-0.1-0.1-0.2-0.2-0.3-0.2
	c-0.1,0-0.2,0.1-0.2,0.1c-0.1,0.1-0.2,0.1-0.3,0.2l0,0c-0.1,0-0.3,0-0.4-0.1l-0.1-0.1c-0.1,0-0.3-0.1-0.4-0.1l-3.8,0.4
	c-0.1,0-0.2,0.1-0.4,0.1C73.8,51,73.7,51,73.6,51c-0.1,0-0.2,0-0.2-0.1c-0.1,0-0.2-0.1-0.3-0.1L71.9,51c-0.1,0-0.3,0.1-0.3,0.2
	l-0.1,0c-0.1,0.1-0.2,0.1-0.3,0.2c-0.1,0-0.2,0-0.3-0.1l0,0c-0.1-0.1-0.2-0.1-0.4-0.1l-1,0.1c-0.1,0-0.2,0.1-0.3,0.2
	c-0.1,0.1-0.2,0.1-0.3,0.2c-0.1,0-0.2,0-0.3-0.1l0,0c-0.1-0.1-0.2-0.1-0.4-0.1l0,0c-0.1,0-0.3,0.1-0.4,0.1h-0.1
	c-0.1,0.1-0.2,0.1-0.3,0.1c-0.1,0-0.1-0.1-0.2-0.1l0,0c-0.1-0.1-0.3-0.1-0.4-0.1l-1.7,0.2c-0.1,0-0.2,0.1-0.3,0.2
	c-0.1,0.1-0.1,0.2,0,0.3c0.1,0.1,0.1,0.2,0.2,0.3c0,0.1,0,0.2-0.1,0.2l-0.2,0.2c-0.1,0.1-0.2,0.1-0.3,0.2c-0.1,0.1-0.3,0.2-0.4,0.4
	c-0.1,0.1-0.2,0.2-0.3,0.2h-0.2c-0.1,0-0.3,0.1-0.4,0.2l-0.1,0c-0.1,0.1-0.2,0.1-0.4,0.1c-0.3,0-0.5-0.1-0.8-0.2
	c-0.2-0.1-0.4-0.1-0.6,0c-0.1,0.1-0.2,0.1-0.3,0.2c-0.1,0-0.2,0-0.3-0.1h-0.1c-0.1-0.1-0.2-0.1-0.3-0.1c-0.1,0-0.2,0-0.2-0.1
	c0-0.1,0-0.1,0-0.2s0-0.1,0-0.2c0.1,0,0.1,0,0.2,0c0.1,0,0.1,0,0.2,0c0.1,0,0.2-0.1,0.3-0.2l0.2-0.2c0.1-0.1,0.1-0.2,0.2-0.3
	c0-0.1,0-0.2-0.1-0.2c-0.1,0-0.2,0-0.3,0l-3.9,0.4c-0.1,0-0.2,0.1-0.3,0.2l-0.3,0.3c-0.1,0.1-0.2,0.1-0.3,0l-0.5-0.2
	c-0.1,0-0.3-0.1-0.4-0.1l-44.3,4.6c-0.1,0-0.3,0-0.4,0h-0.1c-0.1-0.1-0.2-0.2-0.2-0.3L8.7,45.7c0-0.1,0-0.3,0-0.4v-0.4
	c0-0.1,0-0.4-0.2-0.5L8,44.1c-0.2,0-0.4,0-0.6,0l-1.2,0.3c-0.1,0-0.2,0.1-0.2,0.3v0.8c0,0.1,0,0.3,0,0.4l0.4,5.2
	c0,0.2,0.1,0.3,0.1,0.5c0.1,0.2,0.4,1.9,0.4,2.3S7,54.4,7,54.5l0.3,2.8v0.2v0.2l0.2,1c0,0.1,0.1,0.3,0.2,0.4l0.5,0.6
	c0.1,0.1,0.2,0.2,0.3,0.2l0.9,0.1c0.1,0,0.3,0,0.4,0l8.5-0.9c0.1,0,0.3-0.1,0.4-0.2l0.6-0.4c0.1-0.1,0.1-0.2,0-0.3l-0.1-0.2
	c-0.1-0.1-0.2-0.2-0.3-0.2h-0.1c-0.1,0-0.3-0.2-0.2-0.2s0.1-0.2,0.3-0.3s0.3,0,0.4-0.1c0.2,0,0.3,0,0.5,0.1l0.3,0.3
	c0.1,0.1,0.3,0.2,0.4,0.3l0.6,0.5c0.1,0.1,0.2,0.1,0.4,0.2l0.5,0.1c0.1,0,0.3,0,0.4,0l25-2.6c0.1,0,0.3-0.1,0.4-0.1l0.2-0.1
	c0.1-0.1,0.2,0,0.3,0s0.2,0.1,0.3,0.1h0.2c0.1,0,0.2-0.1,0.3-0.2v-0.1c0-0.1,0.1-0.3,0.2-0.2s0.2,0,0.3,0.1l0.2,0.2
	c0.1,0.1,0.2,0.1,0.3,0.1l2.1-0.3c0.1,0,0.2-0.1,0.3-0.2l0.1-0.2c0.1-0.1,0.2-0.2,0.3-0.3c0.1-0.1,0.2-0.2,0.3-0.3l0.3-0.4
	c0.1-0.1,0.2-0.2,0.3-0.2c0.1,0,0.2,0,0.3,0.1l0,0c0.1,0.1,0.2,0.1,0.4,0.1h0.1c0.1,0,0.2,0,0.3-0.1c0,0,0.1-0.1,0.1-0.1
	c0,0,0.1,0,0.2,0.1c0.1,0.1,0.1,0.2,0.1,0.4v0c0,0.1,0.1,0.3,0.2,0.4l0.1,0.1c0.1,0.1,0.2,0.1,0.3,0.1l1-0.1c0.1,0,0.2-0.1,0.3-0.2
	l0.1-0.2c0.1-0.1,0.1-0.2,0.2-0.2c0,0-0.1-0.1-0.1-0.1S57,54.3,57,54.2s0.1-0.1,0.2-0.1c0.1,0,0.2,0,0.3,0.1c0.1,0.1,0.2,0.1,0.2,0
	c0.1-0.1,0.1-0.2,0.2-0.3l0,0c0-0.1,0.1-0.2,0.2-0.3c0.1-0.1,0.2-0.1,0.3-0.1c0.1,0,0.2,0.1,0.2,0.2v0.2c0,0.1,0.1,0.3,0.2,0.4
	l0.3,0.4c0.1,0.1,0.2,0.1,0.3,0.1c0.1,0,0.2-0.1,0.2-0.1c0.1,0,0.1-0.1,0.2-0.1c0.1,0,0.2,0,0.3,0c0.1,0,0.2,0,0.3,0
	c0.1,0,0.2,0,0.3-0.1c0.1,0,0.2,0,0.3,0l1.3-0.1h0.4l3.2-0.3c0.1,0,0.2-0.1,0.3-0.2c0.1-0.1,0.2-0.4,0.3-0.5s0.1-0.2,0.2-0.3
	c0.1-0.1,0.1-0.2,0.2-0.3v-0.1c0-0.1,0-0.2-0.1-0.3c0,0,0-0.1,0-0.1c0.1-0.1,0.1-0.2,0.2-0.2l0.2-0.1c0.1-0.1,0.2-0.1,0.3-0.1
	c0.2,0,0.3,0.1,0.5,0.2l0.2,0.1c0.1,0,0.2,0,0.4,0c0.1,0,0.2-0.1,0.2-0.2c0-0.1,0.1-0.1,0.1-0.2c0.1,0,0.1,0,0.1,0.1
	c0.1,0.1,0.1,0.1,0.2,0.2c0.1,0,0.1,0.1,0.2,0.2c0,0.1-0.1,0.2-0.2,0.2l0,0c-0.1,0.1-0.2,0.1-0.3,0.2L69,52.8c0,0.1-0.2,0.2-0.2,0.3
	l0,0c0,0.1-0.1,0.3-0.2,0.4l0,0c-0.1,0.1-0.1,0.2-0.1,0.3c0,0.1,0.1,0.1,0.1,0.1c0.1,0,0.2-0.1,0.2-0.1l0.1-0.1
	c0.1-0.1,0.2-0.2,0.2-0.3c0-0.1,0.1-0.2,0.2-0.2c0,0,0.1,0,0.1,0c0,0.1,0.1,0.2,0.1,0.3v0.1c0,0.1,0.1,0.2,0.2,0.2c0,0,0,0,0,0h0.1
	c0.1,0,0.2-0.1,0.3-0.2v-0.1c0-0.1,0-0.2-0.1-0.2c0,0,0,0,0,0h-0.1c-0.1,0-0.2-0.1-0.3-0.2c0-0.1,0-0.2,0.1-0.3l0.1-0.1
	c0.1-0.1,0.2-0.1,0.4,0l0.2,0.1c0.1,0,0.2,0.1,0.2,0.2c0,0.1,0.1,0.2,0.2,0.3h0.1c0.1,0.1,0.2,0.1,0.4,0.1l0,0
	c0.1,0,0.2-0.1,0.3-0.1l0.3-0.3l0.2-0.2c0.1-0.1,0.2-0.1,0.3-0.1l0.3,0.1c0.1,0.1,0.2,0.2,0.3,0.3l0.1,0.2c0,0.1,0.1,0.2,0.2,0.2
	c0.1,0,0.2-0.1,0.2-0.3v0c0-0.1,0-0.2,0.1-0.4c0.1-0.1,0.2-0.2,0.3-0.2l0.6-0.1c0.1,0,0.3,0,0.4,0.1l0.2,0.1
	c0.1,0.1,0.2,0.1,0.3,0.1c0.1,0,0.2-0.1,0.3-0.1l0.1-0.1c0.1-0.1,0.2,0,0.3-0.1l0.4-0.1c0.2,0,0.3-0.1,0.3,0c0.1,0,0.3,0,0.4,0
	l0.4-0.1c0.1,0,0.2-0.1,0.3-0.2c0.1-0.1,0.1-0.2,0.2-0.3l0.1-0.1c0.1-0.1,0.2-0.2,0.3-0.2h0.3c0.1,0,0.2,0,0.3,0c0.1,0,0,0.1,0,0.2
	l0,0c-0.1,0.1-0.1,0.2-0.1,0.3l0,0c0,0.1,0.1,0.2,0.3,0.2h0.4h0.1c0.1,0,0.2,0.1,0.3,0.2l0.1,0.1c0.1,0.1,0.2,0.1,0.3,0.1l3.8-0.3
	c0.1,0,0.2-0.1,0.3-0.2l0.1-0.1c0.1-0.1,0.1-0.2,0.1-0.3c0-0.1-0.1-0.2-0.1-0.2c0-0.1,0-0.2,0-0.3c0-0.1,0-0.2,0.1-0.3
	s0.1-0.1,0.2,0V51c0.1,0.1,0.1,0.3,0.1,0.4v0.4c0,0.1,0,0.2,0.1,0.3c0,0,0.1,0,0.2,0l0,0c0.1-0.1,0.2-0.1,0.4-0.2
	c0.1,0,0.2,0,0.3,0.1C85.9,52,86,52,86.1,52l0,0c0.1,0,0.2-0.1,0.3-0.2v-0.1c0.1-0.1,0.1-0.2,0.1-0.3c0-0.1,0-0.2-0.1-0.2
	c0-0.1,0-0.2,0-0.3c0-0.1,0-0.2,0-0.3c0-0.1,0-0.2-0.1-0.2c0-0.1,0-0.2,0-0.3v-0.4c0-0.1,0-0.3-0.1-0.4l-0.1-0.1
	C86.1,49.1,86,49,86,48.9c0-0.1,0.1-0.2,0.2-0.3l0,0c0.1-0.1,0.3-0.1,0.4-0.1H87C87.1,48.5,87.3,48.5,87.4,48.5L87.4,48.5z M83,51.1
	L83,51.1c0,0.2-0.1,0.2-0.2,0.3c-0.1,0-0.2-0.1-0.2-0.2c-0.1-0.1-0.1-0.2,0-0.2c0.1,0,0.1,0,0.2-0.1s0.1,0,0.2,0
	C83,51,83,51.1,83,51.1z M85.2,38.2c0,0,0.1,0.1,0.2,0.2l0,0c0,0.1,0,0.3,0,0.4V39c0,0.1,0,0.2-0.1,0.1c0-0.1,0-0.2,0-0.3
	c0-0.1-0.1-0.3-0.1-0.5S85.2,38.3,85.2,38.2L85.2,38.2z M85.5,40.8L85.5,40.8c-0.2,0.1-0.2,0.2-0.2,0.3c0,0.1,0,0.2,0,0.3
	c0,0.1,0,0.2,0,0.3v0.1c0,0.1,0,0.2-0.1,0.2s-0.1-0.1-0.1-0.2l-0.1-0.6c0-0.1,0-0.3,0-0.4v-0.2c0-0.1,0-0.2,0.1-0.3
	c0.1-0.1,0.2-0.1,0.3-0.1h0.2c0.1,0,0.2,0,0.2,0.1c0,0.1,0,0.2-0.1,0.3l0,0C85.8,40.6,85.7,40.7,85.5,40.8L85.5,40.8z M85.6,50.8
	c0,0-0.1,0-0.2-0.1c0-0.1,0-0.2,0-0.3c0-0.1,0.1,0,0.1,0.1v0.1C85.7,50.7,85.7,50.8,85.6,50.8L85.6,50.8z M85.9,47.3
	c-0.1,0-0.2,0-0.3,0c0,0,0-0.1,0-0.1c0,0,0.1,0,0.2-0.1s0.1,0,0.2,0S86,47.3,85.9,47.3L85.9,47.3z M86.1,41.2L86.1,41.2
	c0.2-0.2,0.2-0.2,0.3-0.2s0.1,0.1,0,0.2v0.2c0,0.1-0.1,0.1-0.2,0.1l-0.1-0.1C86,41.4,86,41.3,86.1,41.2L86.1,41.2z"/>
<path class="st0" d="M88.1,50.6c0,0,0-0.1,0-0.2s0-0.2,0-0.3v-0.2c0-0.1-0.1-0.2-0.2-0.3l0,0c-0.1-0.1-0.2-0.1-0.3,0l-0.3,0.3
	c-0.1,0.1-0.1,0.2-0.2,0.3c0,0.1,0,0.2,0.1,0.3c0.1,0.1,0.1,0.2,0.2,0.3c0,0.1,0,0.2,0,0.3c0,0.1-0.1,0.1-0.1,0.2
	c0,0.1,0,0.2,0.1,0.3c0.1,0.1,0.2,0.1,0.3,0.1c0.1,0,0.2-0.1,0.3-0.2v-0.1c0.1-0.1,0.1-0.2,0.1-0.3c0-0.1,0.1-0.2,0.1-0.2
	C88.2,50.8,88.2,50.7,88.1,50.6z"/>
<path class="st0" d="M87.1,45.1c-0.1,0-0.1,0-0.2,0.1l-0.2,0.2c-0.1,0,0,0.1,0,0.2c0.1,0.1,0.2,0.1,0.3,0.1h0.1
	c0.1,0,0.1-0.1,0.1-0.2c0-0.1-0.1-0.2-0.1-0.3C87.2,45.2,87.1,45.2,87.1,45.1z"/>
<path class="st0" d="M6.5,24.5c0.1-0.1,0.1-0.2,0.1-0.4c0-0.1,0-0.3,0-0.4v-0.1c0-0.1,0-0.3,0-0.4l-0.1-0.3c0-0.1-0.1-0.3-0.1-0.4
	l-1-9c0-0.1,0-0.2,0.1-0.3l0.4-0.3c0.1-0.1,0.2-0.1,0.4-0.1l10.9-1.1c0.1,0,0.3,0,0.4,0h0.1c0.1,0,0.3,0,0.4,0h0l0.4-0.1
	c0.1,0,0.3-0.1,0.4-0.1h0.2h0.4H20h0.4l17.7-2.1c0.1,0,0.3-0.1,0.3-0.2l0,0C38.5,9.1,38.6,9,38.7,9c0.1,0,0.2,0,0.3,0.1h0.1
	c0.1,0.1,0.2,0.1,0.3,0.1c0.1,0,0.2-0.1,0.2-0.2c0.1-0.1,0.2-0.1,0.3-0.1L40.2,9c0.1,0,0.3,0,0.4,0l4.8-0.5c0.1,0,0.3-0.1,0.4-0.1
	c0.1,0,0.2-0.1,0.3-0.1c0.1,0,0.2,0,0.3,0l0.6-0.1c0.2,0,0.3-0.1,0.5-0.2c0,0,0,0,0-0.1c-0.1-0.1-0.2,0-0.3-0.1S47.1,7.8,47,7.8
	l-0.2,0.1c-0.1,0-0.2,0-0.4,0c-0.1,0-0.1-0.1-0.2-0.1c-0.1,0-0.1-0.2-0.1-0.3c0-0.1,0-0.2,0.1-0.2c0.1-0.1,0.2-0.1,0.4-0.1L48,7.1
	c0.1,0,0.2-0.1,0.3-0.1c0.1,0,0.2,0,0.3,0h0.1C48.9,7,49,7.1,49,7.2c0,0.1,0,0.2,0,0.4l0,0c-0.1,0.1-0.1,0.2-0.1,0.3
	c0,0,0,0,0.1,0.1l0.3,0.2h0.1c0.1,0,0.2,0,0.3-0.1C49.7,8,49.8,7.9,50,7.9h0.1c0.1,0,0.3,0,0.4,0s0.3,0,0.4,0h0.1
	c0.1,0,0.3-0.1,0.4-0.1l0.1-0.1c0.1-0.1,0.2-0.2,0.2-0.3c0-0.1,0.1-0.2,0.1-0.3c0.1,0,0.1-0.1,0.2-0.1C52,6.9,52,6.9,52.1,6.9
	c0.1,0,0.2,0,0.3,0.1l0.3,0.2c0.1,0.1,0.2,0.1,0.3,0.1c0.1,0,0.2-0.1,0.3-0.3l0,0c0-0.1,0.1-0.2,0.2-0.2c0.1,0,0.2,0,0.3,0l0.3,0.1
	c0.1,0,0.2,0.1,0.3,0.2c0,0.1,0.1,0.2,0.2,0.3c0.1,0.1,0.2,0.1,0.3,0.1l3.2-0.3c0.1,0,0.2-0.1,0.3-0.2c0-0.1,0.1-0.1,0.1-0.2
	c0-0.1-0.1-0.2-0.2-0.3V6.3c-0.1-0.1-0.1-0.2,0-0.3c0.1,0,0.2-0.1,0.2,0l1-0.1c0.1,0,0.3,0,0.4,0.1c0.1,0.1,0.2,0.1,0.3,0.1
	c0.1,0,0.2-0.1,0.2-0.2c0.1-0.1,0.2-0.1,0.3-0.1h0.4c0.1,0,0.2,0,0.3,0l0.1,0.1c0,0,0,0.1,0,0.1c0,0.1,0.1,0.2,0.1,0.3v0.1
	c0,0.1,0.2,0.2,0.2,0.2c0.1,0,0.1,0,0.2-0.1c0.1-0.1,0.2-0.1,0.3-0.1h0.1c0.1,0,0.3,0,0.4,0.1h0.1c0.1,0.1,0.2,0.1,0.4,0.2
	c0.1,0,0.3,0,0.4,0L66,6.4c0.1,0,0.2-0.1,0.3-0.2c0-0.1,0.1-0.2,0.2-0.2s0.1,0.1,0.2,0.2c0.1,0.1,0.2,0.1,0.3,0.1h0.4
	c0.1,0,0.2-0.1,0.3-0.2l0,0c0.1-0.1,0.1-0.2,0.1-0.3c0-0.1,0.1-0.2,0.2-0.3l0,0c0.1-0.1,0.2-0.1,0.3-0.1c0.1,0,0.1,0,0.2,0.1
	c0,0,0.1,0.1,0.1,0.1c0,0,0.1-0.1,0.1-0.1c0-0.1,0-0.1,0.1-0.2c0-0.1,0.1-0.2,0.2-0.2C68.9,5,69,5,69,5.1c0.1,0.1,0.2,0.1,0.3,0.1
	l0,0c0.1,0,0.3,0,0.4,0h0.2c0.1,0,0.2,0,0.3,0.1l0,0c0.1,0.1,0.2,0.2,0.3,0.2c0.1,0,0.2,0,0.3-0.1c0-0.1,0.1-0.1,0.2,0l0.2,0.2
	c0.1,0.1,0.1,0.1,0.2,0.2c0.1,0,0.1-0.1,0.2-0.2l0.1-0.1c0.1-0.1,0.1-0.2,0.3-0.3l0.3-0.2c0.1-0.1,0.2-0.2,0.3-0.3l0,0
	c0.1-0.1,0.2-0.1,0.3-0.2c0.1,0,0.2,0,0.4,0l0,0c0.1,0,0.2,0,0.3,0c0.1,0,0.1-0.1,0.2-0.1H74c0.1,0,0.2,0.1,0.3,0.2v0.1
	c0.1,0.1,0.2,0.2,0.3,0.3l0.2,0.2c0.1,0.1,0.2,0.1,0.4,0.1l4-0.4c0.1,0,0.2-0.1,0.2-0.2c0-0.1,0-0.2,0-0.3c-0.1-0.1-0.1-0.2,0-0.3
	c0.1-0.1,0.2-0.1,0.3-0.1l0.6,0.2c0.1,0,0.2,0.1,0.3,0.2c0.1,0.1,0.1,0.1,0.1,0.2c0,0.1,0,0.1,0,0.2c0,0.1,0,0.2,0,0.3v0.5
	c0,0.1,0.1,0.2,0.1,0.3c0,0.1,0.1,0.2,0.1,0.3l0,0c0,0.1,0,0.3,0,0.4s0,0.3,0,0.4l0.2,2c0,0.1,0.1,0.3,0.1,0.4v0.1
	c0.1,0.1,0.1,0.2,0.1,0.4l0.4,3.3c0,0.1,0,0.3,0,0.4v0.1c0,0.1,0,0.3,0,0.4l0.2,1.4c0,0.1,0.1,0.3,0.2,0.4l0,0
	c0.1,0.1,0.1,0.1,0.2,0.2c0,0.1,0,0.1,0.1,0.2c0,0.1,0.1,0.1,0.2,0.1c0.1,0,0.1,0,0.2,0.1c0.1,0,0.2,0.1,0.3,0.1
	c0.1,0,0.2,0.1,0.3,0.1l0.3,0.2c0.1,0.1,0.2,0.1,0.3,0.1c0.1,0,0-0.2,0-0.3l0,0c0-0.1,0-0.3,0-0.4v-0.1c0-0.1-0.1-0.2-0.1-0.3
	c0-0.1,0-0.1,0-0.3s0-0.2,0-0.3c0-0.1-0.1-0.2-0.2-0.2c-0.1-0.1-0.1-0.1-0.1-0.2c0-0.1,0-0.2,0.1-0.3l0.1-0.1
	c0.1-0.1,0.1-0.2,0.3-0.3l0,0c0.1-0.1,0.2-0.2,0.2-0.3c0-0.1,0-0.2,0-0.3c0-0.1-0.1-0.1-0.1-0.2c0-0.1,0-0.2,0.1-0.3l0,0
	c0.1-0.1,0.1-0.2,0.1-0.3c0-0.1,0-0.1-0.1-0.2c0,0-0.1-0.1-0.1-0.1c0-0.1,0-0.2,0.1-0.3l0,0c0-0.1,0-0.3,0-0.4L84,10.7
	c0-0.1-0.1-0.3-0.2-0.4L83.5,10c-0.1-0.1-0.1-0.2-0.2-0.4V9.4c0-0.1,0-0.3,0.1-0.4l0.3-0.2c0.1-0.1,0.1-0.2,0.1-0.4V8.3
	c0-0.1-0.1-0.2-0.2-0.3l-0.3-0.2c-0.1-0.1-0.1,0-0.2-0.1s0.1-0.1,0.1-0.2l0.2-0.2c0.1-0.1,0.1-0.2,0.1-0.3V6.8c0-0.1,0-0.2-0.1-0.3
	c0-0.1,0-0.1,0-0.2c0-0.1,0-0.2,0-0.3L83.2,3c0-0.1,0-0.2-0.1-0.4c0-0.1-0.1-0.3-0.2-0.4s-0.3,0-0.4-0.2C82.4,2,82.3,2,82.1,2
	l-1.3,0.1c-0.1,0-0.3,0.1-0.4,0.1l-0.1,0.1c-0.1,0.1-0.2,0.1-0.4,0.1h-0.1c-0.1,0-0.3,0-0.4-0.1l-0.1,0c-0.1-0.1-0.3-0.1-0.4-0.1
	l-1.6,0.2c-0.1,0-0.3,0.1-0.4,0.1l0,0c-0.1,0.1-0.2,0.2-0.3,0.3L76.5,3c-0.1,0.1-0.2,0.2-0.3,0.2H76c-0.1,0-0.3,0-0.4,0l-0.2-0.1
	c-0.1,0-0.3,0-0.4,0l-1.9,0.2c-0.1,0-0.3,0.1-0.4,0.1l-1,0.4c-0.1,0-0.2,0.1-0.3,0.1c-0.1,0-0.2,0-0.4,0.1l-0.3,0.2
	c-0.1,0.1-0.2,0.1-0.3,0l0,0c-0.1-0.1-0.3-0.1-0.4-0.1h-0.3c-0.1,0-0.2-0.1-0.3-0.2l-0.2-0.2C69,3.6,69,3.5,69,3.5s-0.3,0-0.3,0
	c-0.1,0-0.2,0-0.3,0l-2,0.2c-0.1,0-0.2,0.1-0.3,0.2l-0.2,0.3c-0.1,0.1-0.2,0.2-0.3,0.2c-0.1,0-0.2-0.1-0.3-0.1L65.1,4
	c-0.1-0.1-0.2-0.1-0.3-0.1h-0.1c-0.1,0-0.3,0.1-0.4,0.1l-0.1,0.1c-0.1,0-0.2,0-0.3,0h-0.1c-0.1,0-0.2,0-0.3-0.1c-0.1,0-0.2,0-0.3,0
	L2.5,10.3c-0.1,0-0.2,0.1-0.3,0.2l-0.3,0.4c-0.1,0.1-0.1,0.2-0.1,0.4l0.1,0.4c0,0.1,0,0.3,0,0.4l-0.1,0.3c0,0.1,0,0.3,0,0.4l0.2,2.8
	c0,0.1,0,0.3,0.1,0.4l0.1,0.3c0,0.1,0.1,0.3,0.1,0.4v0.5c0,0.1,0,0.3,0,0.4l0.3,1.3c0,0.1,0.1,0.3,0.1,0.4l0.3,2.5
	c0,0.1,0.1,0.3,0.1,0.4l0.2,0.3c0.1,0.1,0.1,0.2,0.2,0.4l0.1,0.5c0,0.1,0,0.3,0,0.4v0.1c0,0.1,0,0.3,0,0.4v0c0,0.1,0.1,0.2,0.2,0.3
	l0.5,0.5c0.1,0.1,0.2,0.1,0.3,0.1l1-0.1c0.1,0,0.2-0.1,0.3-0.2L6.5,24.5z M82.7,6.4c0-0.1,0.1-0.2,0.1-0.1c0,0.1,0,0.2,0,0.3
	c0,0.1-0.1,0.2-0.2,0.2S82.7,6.6,82.7,6.4L82.7,6.4z"/>
</svg>
