<svg id="Layer_1" data-name="Layer 1" xmlns="http://www.w3.org/2000/svg" viewBox="0 0 57 56"><defs><style>.cls-1{fill:#fff;}</style></defs><title>IMaI_Ikon_sprak_fot_</title><path class="cls-1" d="M15.88,13.25l-5,19.12L14.19,32l1-4.44,7.12-.75,2,4.12,3.33-.35L18.75,13Zm0,11.66L17.72,17l3.47,7.35Z"/><path class="cls-1" d="M38.06,12.4l-3.12.33.34,3.19-7.93.83.33,3.13,12.61-1.33A30.43,30.43,0,0,1,37.13,24a21,21,0,0,1-2.94-3.11l-2.59,1.9a39.4,39.4,0,0,0,3.61,3.72,41.88,41.88,0,0,1-4.54,4.77l2.08,2.52a43.42,43.42,0,0,0,5.08-5.24,57.12,57.12,0,0,0,7.24,4l1.19-2.94A32.42,32.42,0,0,1,39.72,26a43,43,0,0,0,4.2-7.84l2.76-.29-.33-3.12-8,.83Z"/><path class="cls-1" d="M48.67,1,4.3,5.7A3.68,3.68,0,0,0,1,9.72L5.77,55,22.49,42.52,52.7,39.34a3.67,3.67,0,0,0,3.29-4l-3.26-31A3.68,3.68,0,0,0,48.67,1Zm4.64,34.57a1,1,0,0,1-.9,1L21.48,39.91,8,50,3.69,9.43a1,1,0,0,1,.89-1L49,3.72A1,1,0,0,1,50,4.56Z"/></svg>