<svg id="Layer_1" data-name="Layer 1" xmlns="http://www.w3.org/2000/svg" viewBox="0 0 29 27"><defs><style>.cls-1{fill:#333;}</style></defs><title>IMaI_Ikon_meny_</title><rect class="cls-1" x="6" y="7.5" width="17" height="2"/><rect class="cls-1" x="6" y="15.5" width="17" height="2"/><rect class="cls-1" x="6" y="11.5" width="17" height="2"/><path class="cls-1" d="M26.08,1H2.92A1.91,1.91,0,0,0,1,2.9V22.1A2.06,2.06,0,0,0,2.92,24H26.08A1.91,1.91,0,0,0,28,22.1V2.9A1.91,1.91,0,0,0,26.08,1Zm.52,21.1a.51.51,0,0,1-.52.5H2.92c-.21,0-.51-.35-.52-.5V2.9a.51.51,0,0,1,.52-.5H26.08a.51.51,0,0,1,.52.5Z"/></svg>