<svg id="Layer_1" data-name="Layer 1" xmlns="http://www.w3.org/2000/svg" viewBox="0 0 29 27"><defs><style>.cls-1{fill:#333;}</style></defs><title>IMaI_Ikon_Sprak_</title><path class="cls-1" d="M8.49,5.4,4.86,15H6.6l.77-2.23h3.72L11.88,15h1.74L10,5.4Zm-.65,6,1.39-4,1.39,4Z"/><path class="cls-1" d="M20,6.17H18.36V7.84H14.22V9.46H20.8a16.14,16.14,0,0,1-1.92,2.64,10.68,10.68,0,0,1-1.35-1.77l-1.44.84a21,21,0,0,0,1.66,2.12,22.08,22.08,0,0,1-2.61,2.22l.94,1.41A22.13,22.13,0,0,0,19,14.49a30.38,30.38,0,0,0,3.52,2.45l.78-1.45a17.37,17.37,0,0,1-3.19-2.2,21.77,21.77,0,0,0,2.6-3.83h1.44V7.84H20Z"/><path class="cls-1" d="M26.08,1H2.92A1.91,1.91,0,0,0,1,2.89V26.53L10.31,21H26.08A1.91,1.91,0,0,0,28,19.11V2.89A1.91,1.91,0,0,0,26.08,1Zm.52,18.11a.5.5,0,0,1-.52.49H9.93L2.4,24.07V2.89a.5.5,0,0,1,.52-.49H26.08a.5.5,0,0,1,.52.49Z"/></svg>